<?xml version="1.0" encoding="us-ascii" standalone="no"?><svg xmlns="http://www.w3.org/2000/svg" xmlns:xlink="http://www.w3.org/1999/xlink" contentStyleType="text/css" height="233.4px" preserveAspectRatio="none" style="width:307px;height:233px;background:#FFFFFF;" version="1.1" viewBox="0 0 307 233" width="307.8px" zoomAndPan="magnify"><defs/><g><!--class HtmlTag--><g id="elem_HtmlTag"><rect codeLine="2" fill="#F1F1F1" height="73.4906" id="HtmlTag" rx="1.5" ry="1.5" style="stroke:#181818;stroke-width:0.3;" width="177.6" x="49.5" y="4.2"/><ellipse cx="119.85" cy="13.8" fill="#A9DCDF" rx="6.6" ry="6.6" style="stroke:#181818;stroke-width:0.6;"/><path d="M121.1625,14.8594 L118.6781,14.8594 L118.425,15.4781 L118.6781,15.4781 Q119.0437,15.4781 119.2031,15.6187 Q119.3625,15.7594 119.3625,15.9937 Q119.3625,16.2188 119.2031,16.3594 Q119.0437,16.5 118.6781,16.5 L117.3,16.5 Q116.9344,16.5 116.7844,16.3594 Q116.625,16.2188 116.625,15.9844 Q116.625,15.7594 116.7937,15.6187 Q116.9531,15.4688 117.3281,15.4781 L118.9312,11.4844 L118.2656,11.4844 Q117.9,11.4844 117.7406,11.3438 Q117.5813,11.2031 117.5813,10.9688 Q117.5813,10.7438 117.7406,10.6031 Q117.9,10.4625 118.2656,10.4625 L120.4688,10.4625 L122.5031,15.4781 Q122.8594,15.4781 122.9719,15.5625 Q123.2063,15.7219 123.2063,15.9937 Q123.2063,16.2188 123.0469,16.3594 Q122.8969,16.5 122.5313,16.5 L121.1531,16.5 Q120.7875,16.5 120.6281,16.3594 Q120.4688,16.2188 120.4688,15.9844 Q120.4688,15.7594 120.6281,15.6187 Q120.7875,15.4781 121.1531,15.4781 L121.4063,15.4781 L121.1625,14.8594 Z M120.7312,13.8375 L119.9156,11.8125 L119.0906,13.8375 L120.7312,13.8375 Z " fill="#000000"/><text fill="#000000" font-family="sans-serif" font-size="8.4" font-style="italic" lengthAdjust="spacing" textLength="31.8" x="132.15" y="17.2781">HtmlTag</text><line style="stroke:#181818;stroke-width:0.3;" x1="50.1" x2="226.5" y1="23.4" y2="23.4"/><line style="stroke:#181818;stroke-width:0.3;" x1="50.1" x2="226.5" y1="28.2" y2="28.2"/><ellipse cx="56.1" cy="37.0863" fill="#84BE84" rx="1.8" ry="1.8" style="stroke:#038048;stroke-width:0.6;"/><text fill="#000000" font-family="sans-serif" font-size="8.4" lengthAdjust="spacing" textLength="162" x="61.5" y="39.6645">__init__(tag_name: str, tag_specs: str = "")</text><ellipse cx="56.1" cy="48.259" fill="#84BE84" rx="1.8" ry="1.8" style="stroke:#038048;stroke-width:0.6;"/><text fill="#000000" font-family="sans-serif" font-size="8.4" lengthAdjust="spacing" textLength="57.6" x="61.5" y="50.8371">__repr__() : str</text><ellipse cx="56.1" cy="59.4316" fill="#84BE84" rx="1.8" ry="1.8" style="stroke:#038048;stroke-width:0.6;"/><text fill="#000000" font-family="sans-serif" font-size="8.4" lengthAdjust="spacing" textLength="93" x="61.5" y="62.0098">_get_tag_gen() : Iterator</text><ellipse cx="56.1" cy="70.6043" fill="#84BE84" rx="1.8" ry="1.8" style="stroke:#038048;stroke-width:0.6;"/><text fill="#000000" font-family="sans-serif" font-size="8.4" lengthAdjust="spacing" textLength="34.8" x="61.5" y="73.1824">tag() : str</text></g><!--class SingleTag--><g id="elem_SingleTag"><rect codeLine="9" fill="#F1F1F1" height="39.9727" id="SingleTag" rx="1.5" ry="1.5" style="stroke:#181818;stroke-width:0.3;" width="108.6" x="12" y="113.4"/><ellipse cx="44.55" cy="123" fill="#ADD1B2" rx="6.6" ry="6.6" style="stroke:#181818;stroke-width:0.6;"/><path d="M46.2094,120.525 Q46.3031,120.3938 46.4156,120.3281 Q46.5281,120.2625 46.6594,120.2625 Q46.8844,120.2625 47.025,120.4219 Q47.1656,120.5719 47.1656,120.9375 L47.1656,121.8094 Q47.1656,122.175 47.025,122.3344 Q46.8844,122.4937 46.6594,122.4937 Q46.4531,122.4937 46.3313,122.3719 Q46.2094,122.2594 46.1438,121.95 Q46.1156,121.7344 46.0031,121.6219 Q45.8063,121.3969 45.4406,121.2656 Q45.075,121.1344 44.7,121.1344 Q44.2406,121.1344 43.8562,121.3313 Q43.4812,121.5281 43.1813,121.9781 Q42.8906,122.4281 42.8906,123.0469 L42.8906,123.7031 Q42.8906,124.4438 43.425,124.9406 Q43.9594,125.4281 44.9156,125.4281 Q45.4781,125.4281 45.8719,125.2781 Q46.1062,125.1844 46.3594,124.9219 Q46.5188,124.7625 46.6031,124.7156 Q46.6969,124.6687 46.8188,124.6687 Q47.0156,124.6687 47.1656,124.8281 Q47.325,124.9781 47.325,125.1844 Q47.325,125.3906 47.1188,125.6344 Q46.8188,125.9812 46.3406,126.1781 Q45.6938,126.45 44.9156,126.45 Q44.0063,126.45 43.2844,126.075 Q42.6938,125.775 42.2813,125.1375 Q41.8688,124.4906 41.8688,123.7219 L41.8688,123.0281 Q41.8688,122.2312 42.2344,121.5469 Q42.6094,120.8531 43.2656,120.4875 Q43.9219,120.1125 44.6625,120.1125 Q45.1031,120.1125 45.4875,120.2156 Q45.8813,120.3094 46.2094,120.525 Z " fill="#000000"/><text fill="#000000" font-family="sans-serif" font-size="8.4" lengthAdjust="spacing" textLength="38.4" x="56.85" y="126.4781">SingleTag</text><line style="stroke:#181818;stroke-width:0.3;" x1="12.6" x2="120" y1="132.6" y2="132.6"/><line style="stroke:#181818;stroke-width:0.3;" x1="12.6" x2="120" y1="137.4" y2="137.4"/><ellipse cx="18.6" cy="146.2863" fill="#84BE84" rx="1.8" ry="1.8" style="stroke:#038048;stroke-width:0.6;"/><text fill="#000000" font-family="sans-serif" font-size="8.4" lengthAdjust="spacing" textLength="93" x="24" y="148.8645">_get_tag_gen() : Iterator</text></g><!--class DoubleTag--><g id="elem_DoubleTag"><rect codeLine="13" fill="#F1F1F1" height="39.9727" id="DoubleTag" rx="1.5" ry="1.5" style="stroke:#181818;stroke-width:0.3;" width="108.6" x="156.6" y="113.4"/><ellipse cx="187.35" cy="123" fill="#ADD1B2" rx="6.6" ry="6.6" style="stroke:#181818;stroke-width:0.6;"/><path d="M189.0094,120.525 Q189.1031,120.3938 189.2156,120.3281 Q189.3281,120.2625 189.4594,120.2625 Q189.6844,120.2625 189.825,120.4219 Q189.9656,120.5719 189.9656,120.9375 L189.9656,121.8094 Q189.9656,122.175 189.825,122.3344 Q189.6844,122.4937 189.4594,122.4937 Q189.2531,122.4937 189.1313,122.3719 Q189.0094,122.2594 188.9438,121.95 Q188.9156,121.7344 188.8031,121.6219 Q188.6063,121.3969 188.2406,121.2656 Q187.875,121.1344 187.5,121.1344 Q187.0406,121.1344 186.6563,121.3313 Q186.2813,121.5281 185.9813,121.9781 Q185.6906,122.4281 185.6906,123.0469 L185.6906,123.7031 Q185.6906,124.4438 186.225,124.9406 Q186.7594,125.4281 187.7156,125.4281 Q188.2781,125.4281 188.6719,125.2781 Q188.9063,125.1844 189.1594,124.9219 Q189.3188,124.7625 189.4031,124.7156 Q189.4969,124.6687 189.6188,124.6687 Q189.8156,124.6687 189.9656,124.8281 Q190.125,124.9781 190.125,125.1844 Q190.125,125.3906 189.9188,125.6344 Q189.6188,125.9812 189.1406,126.1781 Q188.4938,126.45 187.7156,126.45 Q186.8063,126.45 186.0844,126.075 Q185.4938,125.775 185.0812,125.1375 Q184.6688,124.4906 184.6688,123.7219 L184.6688,123.0281 Q184.6688,122.2312 185.0344,121.5469 Q185.4094,120.8531 186.0656,120.4875 Q186.7219,120.1125 187.4625,120.1125 Q187.9031,120.1125 188.2875,120.2156 Q188.6813,120.3094 189.0094,120.525 Z " fill="#000000"/><text fill="#000000" font-family="sans-serif" font-size="8.4" lengthAdjust="spacing" textLength="42" x="199.65" y="126.4781">DoubleTag</text><line style="stroke:#181818;stroke-width:0.3;" x1="157.2" x2="264.6" y1="132.6" y2="132.6"/><line style="stroke:#181818;stroke-width:0.3;" x1="157.2" x2="264.6" y1="137.4" y2="137.4"/><ellipse cx="163.2" cy="146.2863" fill="#84BE84" rx="1.8" ry="1.8" style="stroke:#038048;stroke-width:0.6;"/><text fill="#000000" font-family="sans-serif" font-size="8.4" lengthAdjust="spacing" textLength="93" x="168.6" y="148.8645">_get_tag_gen() : Iterator</text></g><!--class UniqueTag--><g id="elem_UniqueTag"><rect codeLine="17" fill="#F1F1F1" height="39.9727" id="UniqueTag" rx="1.5" ry="1.5" style="stroke:#181818;stroke-width:0.3;" width="169.8" x="133.8" y="189.6"/><ellipse cx="195.45" cy="199.2" fill="#ADD1B2" rx="6.6" ry="6.6" style="stroke:#181818;stroke-width:0.6;"/><path d="M197.1094,196.725 Q197.2031,196.5938 197.3156,196.5281 Q197.4281,196.4625 197.5594,196.4625 Q197.7844,196.4625 197.925,196.6219 Q198.0656,196.7719 198.0656,197.1375 L198.0656,198.0094 Q198.0656,198.375 197.925,198.5344 Q197.7844,198.6938 197.5594,198.6938 Q197.3531,198.6938 197.2313,198.5719 Q197.1094,198.4594 197.0438,198.15 Q197.0156,197.9344 196.9031,197.8219 Q196.7062,197.5969 196.3406,197.4656 Q195.975,197.3344 195.6,197.3344 Q195.1406,197.3344 194.7563,197.5313 Q194.3813,197.7281 194.0812,198.1781 Q193.7906,198.6281 193.7906,199.2469 L193.7906,199.9031 Q193.7906,200.6437 194.325,201.1406 Q194.8594,201.6281 195.8156,201.6281 Q196.3781,201.6281 196.7719,201.4781 Q197.0063,201.3844 197.2594,201.1219 Q197.4188,200.9625 197.5031,200.9156 Q197.5969,200.8688 197.7188,200.8688 Q197.9156,200.8688 198.0656,201.0281 Q198.225,201.1781 198.225,201.3844 Q198.225,201.5906 198.0187,201.8344 Q197.7188,202.1813 197.2406,202.3781 Q196.5938,202.65 195.8156,202.65 Q194.9063,202.65 194.1844,202.275 Q193.5938,201.975 193.1813,201.3375 Q192.7687,200.6906 192.7687,199.9219 L192.7687,199.2281 Q192.7687,198.4313 193.1344,197.7469 Q193.5094,197.0531 194.1656,196.6875 Q194.8219,196.3125 195.5625,196.3125 Q196.0031,196.3125 196.3875,196.4156 Q196.7813,196.5094 197.1094,196.725 Z " fill="#000000"/><text fill="#000000" font-family="sans-serif" font-size="8.4" lengthAdjust="spacing" textLength="41.4" x="207.75" y="202.6781">UniqueTag</text><line style="stroke:#181818;stroke-width:0.3;" x1="134.4" x2="303" y1="208.8" y2="208.8"/><line style="stroke:#181818;stroke-width:0.3;" x1="134.4" x2="303" y1="213.6" y2="213.6"/><ellipse cx="140.4" cy="222.4863" fill="#84BE84" rx="1.8" ry="1.8" style="stroke:#038048;stroke-width:0.6;"/><text fill="#000000" font-family="sans-serif" font-size="8.4" lengthAdjust="spacing" textLength="154.2" x="145.8" y="225.0645">__new__(tag_name: str, *args, **kwargs)</text></g><!--class TagContent--><g id="elem_TagContent"><rect codeLine="21" fill="#F1F1F1" height="39.9727" id="TagContent" rx="1.5" ry="1.5" style="stroke:#181818;stroke-width:0.3;" width="108.6" x="4.2" y="189.6"/><ellipse cx="33.45" cy="199.2" fill="#ADD1B2" rx="6.6" ry="6.6" style="stroke:#181818;stroke-width:0.6;"/><path d="M35.1094,196.725 Q35.2031,196.5938 35.3156,196.5281 Q35.4281,196.4625 35.5594,196.4625 Q35.7844,196.4625 35.925,196.6219 Q36.0656,196.7719 36.0656,197.1375 L36.0656,198.0094 Q36.0656,198.375 35.925,198.5344 Q35.7844,198.6938 35.5594,198.6938 Q35.3531,198.6938 35.2312,198.5719 Q35.1094,198.4594 35.0437,198.15 Q35.0156,197.9344 34.9031,197.8219 Q34.7063,197.5969 34.3406,197.4656 Q33.975,197.3344 33.6,197.3344 Q33.1406,197.3344 32.7563,197.5313 Q32.3813,197.7281 32.0813,198.1781 Q31.7906,198.6281 31.7906,199.2469 L31.7906,199.9031 Q31.7906,200.6437 32.325,201.1406 Q32.8594,201.6281 33.8156,201.6281 Q34.3781,201.6281 34.7719,201.4781 Q35.0063,201.3844 35.2594,201.1219 Q35.4187,200.9625 35.5031,200.9156 Q35.5969,200.8688 35.7188,200.8688 Q35.9156,200.8688 36.0656,201.0281 Q36.225,201.1781 36.225,201.3844 Q36.225,201.5906 36.0188,201.8344 Q35.7188,202.1813 35.2406,202.3781 Q34.5938,202.65 33.8156,202.65 Q32.9063,202.65 32.1844,202.275 Q31.5938,201.975 31.1813,201.3375 Q30.7687,200.6906 30.7687,199.9219 L30.7687,199.2281 Q30.7687,198.4313 31.1344,197.7469 Q31.5094,197.0531 32.1656,196.6875 Q32.8219,196.3125 33.5625,196.3125 Q34.0031,196.3125 34.3875,196.4156 Q34.7813,196.5094 35.1094,196.725 Z " fill="#000000"/><text fill="#000000" font-family="sans-serif" font-size="8.4" lengthAdjust="spacing" textLength="45" x="45.75" y="202.6781">TagContent</text><line style="stroke:#181818;stroke-width:0.3;" x1="4.8" x2="112.2" y1="208.8" y2="208.8"/><line style="stroke:#181818;stroke-width:0.3;" x1="4.8" x2="112.2" y1="213.6" y2="213.6"/><ellipse cx="10.8" cy="222.4863" fill="#84BE84" rx="1.8" ry="1.8" style="stroke:#038048;stroke-width:0.6;"/><text fill="#000000" font-family="sans-serif" font-size="8.4" lengthAdjust="spacing" textLength="93" x="16.2" y="225.0645">_get_tag_gen() : Iterator</text></g><!--reverse link HtmlTag to SingleTag--><g id="link_HtmlTag_SingleTag"><path codeLine="25" d="M103.1658,86.0513 C93.5778,98.2433 89.916,102.888 81.72,113.304 " fill="none" id="HtmlTag-backto-SingleTag" style="stroke:#181818;stroke-width:0.6;"/><polygon fill="none" points="109.842,77.562,100.3361,83.826,105.9956,88.2767,109.842,77.562" style="stroke:#181818;stroke-width:0.6;"/></g><!--reverse link HtmlTag to DoubleTag--><g id="link_HtmlTag_DoubleTag"><path codeLine="26" d="M173.7041,86.0229 C183.3761,98.2149 187.092,102.888 195.354,113.304 " fill="none" id="HtmlTag-backto-DoubleTag" style="stroke:#181818;stroke-width:0.6;"/><polygon fill="none" points="166.992,77.562,170.8838,88.2603,176.5244,83.7856,166.992,77.562" style="stroke:#181818;stroke-width:0.6;"/></g><!--reverse link DoubleTag to UniqueTag--><g id="link_DoubleTag_UniqueTag"><path codeLine="27" d="M214.0449,164.3541 C215.1909,175.3761 215.502,178.374 216.654,189.426 " fill="none" id="DoubleTag-backto-UniqueTag" style="stroke:#181818;stroke-width:0.6;"/><polygon fill="none" points="212.928,153.612,210.4642,164.7264,217.6256,163.9818,212.928,153.612" style="stroke:#181818;stroke-width:0.6;"/></g><!--reverse link SingleTag to TagContent--><g id="link_SingleTag_TagContent"><path codeLine="28" d="M63.1551,164.3541 C62.0091,175.3761 61.698,178.374 60.546,189.426 " fill="none" id="SingleTag-backto-TagContent" style="stroke:#181818;stroke-width:0.6;"/><polygon fill="none" points="64.272,153.612,59.5744,163.9818,66.7358,164.7264,64.272,153.612" style="stroke:#181818;stroke-width:0.6;"/></g><!--SRC=[bL2z3e8m4Dxx51ScGNa1evCEEgjpKyYb8SA1xH46zTqj9ROQOw9JUzzF-tsd2ij6bGnbhQo57JVrKMcu2e2vb1LLBEMCbPQa6bo24ozW76s7fVKph259qabli3DEdu9dFAQHvMZGI1xVCnh5hIST7hHt8QO8XufqZJ74rmU2OzlsnN-E4rMN_iKX2OVFdfaosheZEm_ZBOr-vzoqn4ZymvVFdQvkUHxRlSEXWeXbF16IYhWNJyG8uW40]--></g></svg>