<?xml version="1.0" encoding="us-ascii" standalone="no"?><svg xmlns="http://www.w3.org/2000/svg" xmlns:xlink="http://www.w3.org/1999/xlink" contentStyleType="text/css" height="486px" preserveAspectRatio="none" style="width:472px;height:486px;background:#FFFFFF;" version="1.1" viewBox="0 0 472 486" width="472.8px" zoomAndPan="magnify"><defs/><g><!--class QObject--><g id="elem_QObject"><rect codeLine="2" fill="#F1F1F1" height="39.9727" id="QObject" rx="1.5" ry="1.5" style="stroke:#181818;stroke-width:0.3;" width="50.4" x="4.2" y="20.7"/><ellipse cx="13.2" cy="30.3" fill="#A9DCDF" rx="6.6" ry="6.6" style="stroke:#181818;stroke-width:0.6;"/><path d="M14.5125,31.3594 L12.0281,31.3594 L11.775,31.9781 L12.0281,31.9781 Q12.3937,31.9781 12.5531,32.1188 Q12.7125,32.2594 12.7125,32.4938 Q12.7125,32.7188 12.5531,32.8594 Q12.3937,33 12.0281,33 L10.65,33 Q10.2844,33 10.1344,32.8594 Q9.975,32.7188 9.975,32.4844 Q9.975,32.2594 10.1437,32.1188 Q10.3031,31.9688 10.6781,31.9781 L12.2813,27.9844 L11.6156,27.9844 Q11.25,27.9844 11.0906,27.8438 Q10.9313,27.7031 10.9313,27.4688 Q10.9313,27.2438 11.0906,27.1031 Q11.25,26.9625 11.6156,26.9625 L13.8188,26.9625 L15.8531,31.9781 Q16.2094,31.9781 16.3219,32.0625 Q16.5563,32.2219 16.5563,32.4938 Q16.5563,32.7188 16.3969,32.8594 Q16.2469,33 15.8813,33 L14.5031,33 Q14.1375,33 13.9781,32.8594 Q13.8188,32.7188 13.8188,32.4844 Q13.8188,32.2594 13.9781,32.1188 Q14.1375,31.9781 14.5031,31.9781 L14.7563,31.9781 L14.5125,31.3594 Z M14.0812,30.3375 L13.2656,28.3125 L12.4406,30.3375 L14.0812,30.3375 Z " fill="#000000"/><text fill="#000000" font-family="sans-serif" font-size="8.4" font-style="italic" lengthAdjust="spacing" textLength="31.2" x="21.6" y="33.7781">QObject</text><line style="stroke:#181818;stroke-width:0.3;" x1="4.8" x2="54" y1="39.9" y2="39.9"/><text fill="#000000" font-family="sans-serif" font-size="8.4" lengthAdjust="spacing" textLength="7.2" x="7.8" y="51.3645">...</text><line style="stroke:#181818;stroke-width:0.3;" x1="4.8" x2="54" y1="55.8727" y2="55.8727"/></g><!--class ABC--><g id="elem_ABC"><rect codeLine="6" fill="#F1F1F1" height="39.9727" id="ABC" rx="1.5" ry="1.5" style="stroke:#181818;stroke-width:0.3;" width="36" x="75.6" y="20.7"/><ellipse cx="84.6" cy="30.3" fill="#A9DCDF" rx="6.6" ry="6.6" style="stroke:#181818;stroke-width:0.6;"/><path d="M85.9125,31.3594 L83.4281,31.3594 L83.175,31.9781 L83.4281,31.9781 Q83.7938,31.9781 83.9531,32.1188 Q84.1125,32.2594 84.1125,32.4938 Q84.1125,32.7188 83.9531,32.8594 Q83.7938,33 83.4281,33 L82.05,33 Q81.6844,33 81.5344,32.8594 Q81.375,32.7188 81.375,32.4844 Q81.375,32.2594 81.5438,32.1188 Q81.7031,31.9688 82.0781,31.9781 L83.6812,27.9844 L83.0156,27.9844 Q82.65,27.9844 82.4906,27.8438 Q82.3313,27.7031 82.3313,27.4688 Q82.3313,27.2438 82.4906,27.1031 Q82.65,26.9625 83.0156,26.9625 L85.2188,26.9625 L87.2531,31.9781 Q87.6094,31.9781 87.7219,32.0625 Q87.9563,32.2219 87.9563,32.4938 Q87.9563,32.7188 87.7969,32.8594 Q87.6469,33 87.2813,33 L85.9031,33 Q85.5375,33 85.3781,32.8594 Q85.2188,32.7188 85.2188,32.4844 Q85.2188,32.2594 85.3781,32.1188 Q85.5375,31.9781 85.9031,31.9781 L86.1563,31.9781 L85.9125,31.3594 Z M85.4813,30.3375 L84.6656,28.3125 L83.8406,30.3375 L85.4813,30.3375 Z " fill="#000000"/><text fill="#000000" font-family="sans-serif" font-size="8.4" font-style="italic" lengthAdjust="spacing" textLength="16.8" x="93" y="33.7781">ABC</text><line style="stroke:#181818;stroke-width:0.3;" x1="76.2" x2="111" y1="39.9" y2="39.9"/><text fill="#000000" font-family="sans-serif" font-size="8.4" lengthAdjust="spacing" textLength="7.2" x="79.2" y="51.3645">...</text><line style="stroke:#181818;stroke-width:0.3;" x1="76.2" x2="111" y1="55.8727" y2="55.8727"/></g><!--class HtmlWidget--><g id="elem_HtmlWidget"><rect codeLine="10" fill="#F1F1F1" height="95.8359" id="HtmlWidget" rx="1.5" ry="1.5" style="stroke:#181818;stroke-width:0.3;" width="79.8" x="20.7" y="113.4"/><ellipse cx="37.8" cy="123" fill="#ADD1B2" rx="6.6" ry="6.6" style="stroke:#181818;stroke-width:0.6;"/><path d="M39.4594,120.525 Q39.5531,120.3938 39.6656,120.3281 Q39.7781,120.2625 39.9094,120.2625 Q40.1344,120.2625 40.275,120.4219 Q40.4156,120.5719 40.4156,120.9375 L40.4156,121.8094 Q40.4156,122.175 40.275,122.3344 Q40.1344,122.4937 39.9094,122.4937 Q39.7031,122.4937 39.5813,122.3719 Q39.4594,122.2594 39.3938,121.95 Q39.3656,121.7344 39.2531,121.6219 Q39.0563,121.3969 38.6906,121.2656 Q38.325,121.1344 37.95,121.1344 Q37.4906,121.1344 37.1062,121.3313 Q36.7312,121.5281 36.4313,121.9781 Q36.1406,122.4281 36.1406,123.0469 L36.1406,123.7031 Q36.1406,124.4438 36.675,124.9406 Q37.2094,125.4281 38.1656,125.4281 Q38.7281,125.4281 39.1219,125.2781 Q39.3562,125.1844 39.6094,124.9219 Q39.7688,124.7625 39.8531,124.7156 Q39.9469,124.6687 40.0688,124.6687 Q40.2656,124.6687 40.4156,124.8281 Q40.575,124.9781 40.575,125.1844 Q40.575,125.3906 40.3688,125.6344 Q40.0688,125.9812 39.5906,126.1781 Q38.9438,126.45 38.1656,126.45 Q37.2563,126.45 36.5344,126.075 Q35.9438,125.775 35.5313,125.1375 Q35.1188,124.4906 35.1188,123.7219 L35.1188,123.0281 Q35.1188,122.2312 35.4844,121.5469 Q35.8594,120.8531 36.5156,120.4875 Q37.1719,120.1125 37.9125,120.1125 Q38.3531,120.1125 38.7375,120.2156 Q39.1313,120.3094 39.4594,120.525 Z " fill="#000000"/><text fill="#000000" font-family="sans-serif" font-size="8.4" lengthAdjust="spacing" textLength="42.6" x="48" y="126.4781">HtmlWidget</text><line style="stroke:#181818;stroke-width:0.3;" x1="21.3" x2="99.9" y1="132.6" y2="132.6"/><line style="stroke:#181818;stroke-width:0.3;" x1="21.3" x2="99.9" y1="137.4" y2="137.4"/><ellipse cx="27.3" cy="146.2863" fill="#84BE84" rx="1.8" ry="1.8" style="stroke:#038048;stroke-width:0.6;"/><text fill="#000000" font-family="sans-serif" font-size="8.4" lengthAdjust="spacing" textLength="53.4" x="32.7" y="148.8645">sections() : int</text><ellipse cx="27.3" cy="157.459" fill="#84BE84" rx="1.8" ry="1.8" style="stroke:#038048;stroke-width:0.6;"/><text fill="#000000" font-family="sans-serif" font-size="8.4" lengthAdjust="spacing" textLength="37.2" x="32.7" y="160.0371">divs() : int</text><ellipse cx="27.3" cy="168.6316" fill="#84BE84" rx="1.8" ry="1.8" style="stroke:#038048;stroke-width:0.6;"/><text fill="#000000" font-family="sans-serif" font-size="8.4" lengthAdjust="spacing" textLength="64.2" x="32.7" y="171.2098">bordered() : bool</text><ellipse cx="27.3" cy="179.8043" fill="#84BE84" rx="1.8" ry="1.8" style="stroke:#038048;stroke-width:0.6;"/><text fill="#000000" font-family="sans-serif" font-size="8.4" lengthAdjust="spacing" textLength="60.6" x="32.7" y="182.3824">headers() : bool</text><ellipse cx="27.3" cy="190.977" fill="#84BE84" rx="1.8" ry="1.8" style="stroke:#038048;stroke-width:0.6;"/><text fill="#000000" font-family="sans-serif" font-size="8.4" lengthAdjust="spacing" textLength="41.4" x="32.7" y="193.5551">color() : str</text><ellipse cx="27.3" cy="202.1496" fill="#84BE84" rx="1.8" ry="1.8" style="stroke:#038048;stroke-width:0.6;"/><text fill="#000000" font-family="sans-serif" font-size="8.4" lengthAdjust="spacing" textLength="59.4" x="32.7" y="204.7277">alignment() : str</text></g><!--class Style--><g id="elem_Style"><rect codeLine="19" fill="#F1F1F1" height="51.1453" id="Style" rx="1.5" ry="1.5" style="stroke:#181818;stroke-width:0.3;" width="51" x="35.1" y="262.2"/><ellipse cx="50.04" cy="271.8" fill="#ADD1B2" rx="6.6" ry="6.6" style="stroke:#181818;stroke-width:0.6;"/><path d="M51.6994,269.325 Q51.7931,269.1937 51.9056,269.1281 Q52.0181,269.0625 52.1494,269.0625 Q52.3744,269.0625 52.515,269.2219 Q52.6556,269.3719 52.6556,269.7375 L52.6556,270.6094 Q52.6556,270.975 52.515,271.1344 Q52.3744,271.2938 52.1494,271.2938 Q51.9431,271.2938 51.8213,271.1719 Q51.6994,271.0594 51.6338,270.75 Q51.6056,270.5344 51.4931,270.4219 Q51.2963,270.1969 50.9306,270.0656 Q50.565,269.9344 50.19,269.9344 Q49.7306,269.9344 49.3463,270.1312 Q48.9713,270.3281 48.6713,270.7781 Q48.3806,271.2281 48.3806,271.8469 L48.3806,272.5031 Q48.3806,273.2438 48.915,273.7406 Q49.4494,274.2281 50.4056,274.2281 Q50.9681,274.2281 51.3619,274.0781 Q51.5963,273.9844 51.8494,273.7219 Q52.0088,273.5625 52.0931,273.5156 Q52.1869,273.4688 52.3088,273.4688 Q52.5056,273.4688 52.6556,273.6281 Q52.815,273.7781 52.815,273.9844 Q52.815,274.1906 52.6088,274.4344 Q52.3088,274.7813 51.8306,274.9781 Q51.1838,275.25 50.4056,275.25 Q49.4963,275.25 48.7744,274.875 Q48.1838,274.575 47.7713,273.9375 Q47.3588,273.2906 47.3588,272.5219 L47.3588,271.8281 Q47.3588,271.0313 47.7244,270.3469 Q48.0994,269.6531 48.7556,269.2875 Q49.4119,268.9125 50.1525,268.9125 Q50.5931,268.9125 50.9775,269.0156 Q51.3713,269.1094 51.6994,269.325 Z " fill="#000000"/><text fill="#000000" font-family="sans-serif" font-size="8.4" lengthAdjust="spacing" textLength="18.6" x="59.76" y="275.2781">Style</text><line style="stroke:#181818;stroke-width:0.3;" x1="35.7" x2="85.5" y1="281.4" y2="281.4"/><ellipse cx="41.7" cy="290.2863" fill="none" rx="1.8" ry="1.8" style="stroke:#038048;stroke-width:0.6;"/><text fill="#000000" font-family="sans-serif" font-size="8.4" lengthAdjust="spacing" textLength="35.4" x="47.1" y="292.8645">name: str</text><ellipse cx="41.7" cy="301.459" fill="none" rx="1.8" ry="1.8" style="stroke:#038048;stroke-width:0.6;"/><text fill="#000000" font-family="sans-serif" font-size="8.4" lengthAdjust="spacing" textLength="33" x="47.1" y="304.0371">body: str</text><line style="stroke:#181818;stroke-width:0.3;" x1="35.7" x2="85.5" y1="308.5453" y2="308.5453"/></g><!--class HtmlAdapter--><g id="elem_HtmlAdapter"><rect codeLine="24" fill="#F1F1F1" height="73.4906" id="HtmlAdapter" rx="1.5" ry="1.5" style="stroke:#181818;stroke-width:0.3;" width="334.2" x="134.7" y="4.2"/><ellipse cx="276.15" cy="13.8" fill="#ADD1B2" rx="6.6" ry="6.6" style="stroke:#181818;stroke-width:0.6;"/><path d="M277.8094,11.325 Q277.9031,11.1938 278.0156,11.1281 Q278.1281,11.0625 278.2594,11.0625 Q278.4844,11.0625 278.625,11.2219 Q278.7656,11.3719 278.7656,11.7375 L278.7656,12.6094 Q278.7656,12.975 278.625,13.1344 Q278.4844,13.2938 278.2594,13.2938 Q278.0531,13.2938 277.9313,13.1719 Q277.8094,13.0594 277.7438,12.75 Q277.7156,12.5344 277.6031,12.4219 Q277.4063,12.1969 277.0406,12.0656 Q276.675,11.9344 276.3,11.9344 Q275.8406,11.9344 275.4563,12.1313 Q275.0813,12.3281 274.7813,12.7781 Q274.4906,13.2281 274.4906,13.8469 L274.4906,14.5031 Q274.4906,15.2437 275.025,15.7406 Q275.5594,16.2281 276.5156,16.2281 Q277.0781,16.2281 277.4719,16.0781 Q277.7063,15.9844 277.9594,15.7219 Q278.1188,15.5625 278.2031,15.5156 Q278.2969,15.4688 278.4188,15.4688 Q278.6156,15.4688 278.7656,15.6281 Q278.925,15.7781 278.925,15.9844 Q278.925,16.1906 278.7188,16.4344 Q278.4188,16.7813 277.9406,16.9781 Q277.2938,17.25 276.5156,17.25 Q275.6063,17.25 274.8844,16.875 Q274.2938,16.575 273.8812,15.9375 Q273.4688,15.2906 273.4688,14.5219 L273.4688,13.8281 Q273.4688,13.0313 273.8344,12.3469 Q274.2094,11.6531 274.8656,11.2875 Q275.5219,10.9125 276.2625,10.9125 Q276.7031,10.9125 277.0875,11.0156 Q277.4813,11.1094 277.8094,11.325 Z " fill="#000000"/><text fill="#000000" font-family="sans-serif" font-size="8.4" lengthAdjust="spacing" textLength="46.2" x="288.45" y="17.2781">HtmlAdapter</text><line style="stroke:#181818;stroke-width:0.3;" x1="135.3" x2="468.3" y1="23.4" y2="23.4"/><line style="stroke:#181818;stroke-width:0.3;" x1="135.3" x2="468.3" y1="28.2" y2="28.2"/><ellipse cx="141.3" cy="37.0863" fill="#84BE84" rx="1.8" ry="1.8" style="stroke:#038048;stroke-width:0.6;"/><text fill="#000000" font-family="sans-serif" font-size="8.4" lengthAdjust="spacing" textLength="36" x="146.7" y="39.6645">__init__()</text><ellipse cx="141.3" cy="48.259" fill="#84BE84" rx="1.8" ry="1.8" style="stroke:#038048;stroke-width:0.6;"/><text fill="#000000" font-family="sans-serif" font-size="8.4" lengthAdjust="spacing" textLength="106.8" x="146.7" y="50.8371">build_page(obj: HtmlWidget)</text><ellipse cx="141.3" cy="59.4316" fill="#84BE84" rx="1.8" ry="1.8" style="stroke:#038048;stroke-width:0.6;"/><text fill="#000000" font-family="sans-serif" font-size="8.4" lengthAdjust="spacing" textLength="55.2" x="146.7" y="62.0098">get_html() : str</text><ellipse cx="141.3" cy="70.6043" fill="#84BE84" rx="1.8" ry="1.8" style="stroke:#038048;stroke-width:0.6;"/><text fill="#000000" font-family="sans-serif" font-size="8.4" lengthAdjust="spacing" textLength="318.6" x="146.7" y="73.1824">create_style(color: str, alignment: str, bordered: bool, name: str = "container") : Style</text></g><!--class Strategy--><g id="elem_Strategy"><rect codeLine="31" fill="#F1F1F1" height="39.9727" id="Strategy" rx="1.5" ry="1.5" style="stroke:#181818;stroke-width:0.3;" width="187.2" x="138" y="366"/><ellipse cx="213.15" cy="375.6" fill="#A9DCDF" rx="6.6" ry="6.6" style="stroke:#181818;stroke-width:0.6;"/><path d="M214.4625,376.6594 L211.9781,376.6594 L211.725,377.2781 L211.9781,377.2781 Q212.3438,377.2781 212.5031,377.4188 Q212.6625,377.5594 212.6625,377.7938 Q212.6625,378.0188 212.5031,378.1594 Q212.3438,378.3 211.9781,378.3 L210.6,378.3 Q210.2344,378.3 210.0844,378.1594 Q209.925,378.0188 209.925,377.7844 Q209.925,377.5594 210.0938,377.4188 Q210.2531,377.2688 210.6281,377.2781 L212.2313,373.2844 L211.5656,373.2844 Q211.2,373.2844 211.0406,373.1438 Q210.8813,373.0031 210.8813,372.7688 Q210.8813,372.5438 211.0406,372.4031 Q211.2,372.2625 211.5656,372.2625 L213.7687,372.2625 L215.8031,377.2781 Q216.1594,377.2781 216.2719,377.3625 Q216.5063,377.5219 216.5063,377.7938 Q216.5063,378.0188 216.3469,378.1594 Q216.1969,378.3 215.8312,378.3 L214.4531,378.3 Q214.0875,378.3 213.9281,378.1594 Q213.7687,378.0188 213.7687,377.7844 Q213.7687,377.5594 213.9281,377.4188 Q214.0875,377.2781 214.4531,377.2781 L214.7062,377.2781 L214.4625,376.6594 Z M214.0313,375.6375 L213.2156,373.6125 L212.3906,375.6375 L214.0313,375.6375 Z " fill="#000000"/><text fill="#000000" font-family="sans-serif" font-size="8.4" font-style="italic" lengthAdjust="spacing" textLength="31.8" x="225.45" y="379.0781">Strategy</text><line style="stroke:#181818;stroke-width:0.3;" x1="138.6" x2="324.6" y1="385.2" y2="385.2"/><line style="stroke:#181818;stroke-width:0.3;" x1="138.6" x2="324.6" y1="390" y2="390"/><ellipse cx="144.6" cy="398.8863" fill="#84BE84" rx="1.8" ry="1.8" style="stroke:#038048;stroke-width:0.6;"/><text fill="#000000" font-family="sans-serif" font-size="8.4" lengthAdjust="spacing" textLength="171.6" x="150" y="401.4645">add(node: list[Any], value: HtmlTag) : list[Any]</text></g><!--class Node--><g id="elem_Node"><rect codeLine="35" fill="#F1F1F1" height="39.9727" id="Node" rx="1.5" ry="1.5" style="stroke:#181818;stroke-width:0.3;" width="187.2" x="34.2" y="442.2"/><ellipse cx="115.35" cy="451.8" fill="#ADD1B2" rx="6.6" ry="6.6" style="stroke:#181818;stroke-width:0.6;"/><path d="M117.0094,449.325 Q117.1031,449.1937 117.2156,449.1281 Q117.3281,449.0625 117.4594,449.0625 Q117.6844,449.0625 117.825,449.2219 Q117.9656,449.3719 117.9656,449.7375 L117.9656,450.6094 Q117.9656,450.975 117.825,451.1344 Q117.6844,451.2938 117.4594,451.2938 Q117.2531,451.2938 117.1313,451.1719 Q117.0094,451.0594 116.9438,450.75 Q116.9156,450.5344 116.8031,450.4219 Q116.6062,450.1969 116.2406,450.0656 Q115.875,449.9344 115.5,449.9344 Q115.0406,449.9344 114.6563,450.1312 Q114.2813,450.3281 113.9813,450.7781 Q113.6906,451.2281 113.6906,451.8469 L113.6906,452.5031 Q113.6906,453.2438 114.225,453.7406 Q114.7594,454.2281 115.7156,454.2281 Q116.2781,454.2281 116.6719,454.0781 Q116.9063,453.9844 117.1594,453.7219 Q117.3188,453.5625 117.4031,453.5156 Q117.4969,453.4688 117.6187,453.4688 Q117.8156,453.4688 117.9656,453.6281 Q118.125,453.7781 118.125,453.9844 Q118.125,454.1906 117.9187,454.4344 Q117.6187,454.7813 117.1406,454.9781 Q116.4937,455.25 115.7156,455.25 Q114.8062,455.25 114.0844,454.875 Q113.4937,454.575 113.0813,453.9375 Q112.6688,453.2906 112.6688,452.5219 L112.6688,451.8281 Q112.6688,451.0313 113.0344,450.3469 Q113.4094,449.6531 114.0656,449.2875 Q114.7219,448.9125 115.4625,448.9125 Q115.9031,448.9125 116.2875,449.0156 Q116.6812,449.1094 117.0094,449.325 Z " fill="#000000"/><text fill="#000000" font-family="sans-serif" font-size="8.4" lengthAdjust="spacing" textLength="19.8" x="127.65" y="455.2781">Node</text><line style="stroke:#181818;stroke-width:0.3;" x1="34.8" x2="220.8" y1="461.4" y2="461.4"/><line style="stroke:#181818;stroke-width:0.3;" x1="34.8" x2="220.8" y1="466.2" y2="466.2"/><ellipse cx="40.8" cy="475.0863" fill="#84BE84" rx="1.8" ry="1.8" style="stroke:#038048;stroke-width:0.6;"/><text fill="#000000" font-family="sans-serif" font-size="8.4" lengthAdjust="spacing" textLength="171.6" x="46.2" y="477.6645">add(node: list[Any], value: HtmlTag) : list[Any]</text></g><!--class Leaf--><g id="elem_Leaf"><rect codeLine="39" fill="#F1F1F1" height="39.9727" id="Leaf" rx="1.5" ry="1.5" style="stroke:#181818;stroke-width:0.3;" width="187.2" x="242.4" y="442.2"/><ellipse cx="325.05" cy="451.8" fill="#ADD1B2" rx="6.6" ry="6.6" style="stroke:#181818;stroke-width:0.6;"/><path d="M326.7094,449.325 Q326.8031,449.1937 326.9156,449.1281 Q327.0281,449.0625 327.1594,449.0625 Q327.3844,449.0625 327.525,449.2219 Q327.6656,449.3719 327.6656,449.7375 L327.6656,450.6094 Q327.6656,450.975 327.525,451.1344 Q327.3844,451.2938 327.1594,451.2938 Q326.9531,451.2938 326.8313,451.1719 Q326.7094,451.0594 326.6438,450.75 Q326.6156,450.5344 326.5031,450.4219 Q326.3063,450.1969 325.9406,450.0656 Q325.575,449.9344 325.2,449.9344 Q324.7406,449.9344 324.3563,450.1312 Q323.9813,450.3281 323.6813,450.7781 Q323.3906,451.2281 323.3906,451.8469 L323.3906,452.5031 Q323.3906,453.2438 323.925,453.7406 Q324.4594,454.2281 325.4156,454.2281 Q325.9781,454.2281 326.3719,454.0781 Q326.6063,453.9844 326.8594,453.7219 Q327.0188,453.5625 327.1031,453.5156 Q327.1969,453.4688 327.3187,453.4688 Q327.5156,453.4688 327.6656,453.6281 Q327.825,453.7781 327.825,453.9844 Q327.825,454.1906 327.6188,454.4344 Q327.3187,454.7813 326.8406,454.9781 Q326.1937,455.25 325.4156,455.25 Q324.5062,455.25 323.7844,454.875 Q323.1937,454.575 322.7813,453.9375 Q322.3688,453.2906 322.3688,452.5219 L322.3688,451.8281 Q322.3688,451.0313 322.7344,450.3469 Q323.1094,449.6531 323.7656,449.2875 Q324.4219,448.9125 325.1625,448.9125 Q325.6031,448.9125 325.9875,449.0156 Q326.3812,449.1094 326.7094,449.325 Z " fill="#000000"/><text fill="#000000" font-family="sans-serif" font-size="8.4" lengthAdjust="spacing" textLength="16.8" x="337.35" y="455.2781">Leaf</text><line style="stroke:#181818;stroke-width:0.3;" x1="243" x2="429" y1="461.4" y2="461.4"/><line style="stroke:#181818;stroke-width:0.3;" x1="243" x2="429" y1="466.2" y2="466.2"/><ellipse cx="249" cy="475.0863" fill="#84BE84" rx="1.8" ry="1.8" style="stroke:#038048;stroke-width:0.6;"/><text fill="#000000" font-family="sans-serif" font-size="8.4" lengthAdjust="spacing" textLength="171.6" x="254.4" y="477.6645">add(node: list[Any], value: HtmlTag) : list[Any]</text></g><!--class HtmlBuilder--><g id="elem_HtmlBuilder"><rect codeLine="43" fill="#F1F1F1" height="84.6633" id="HtmlBuilder" rx="1.5" ry="1.5" style="stroke:#181818;stroke-width:0.3;" width="220.8" x="191.4" y="245.4"/><ellipse cx="277.95" cy="255" fill="#ADD1B2" rx="6.6" ry="6.6" style="stroke:#181818;stroke-width:0.6;"/><path d="M279.6094,252.525 Q279.7031,252.3937 279.8156,252.3281 Q279.9281,252.2625 280.0594,252.2625 Q280.2844,252.2625 280.425,252.4219 Q280.5656,252.5719 280.5656,252.9375 L280.5656,253.8094 Q280.5656,254.175 280.425,254.3344 Q280.2844,254.4937 280.0594,254.4937 Q279.8531,254.4937 279.7313,254.3719 Q279.6094,254.2594 279.5438,253.95 Q279.5156,253.7344 279.4031,253.6219 Q279.2063,253.3969 278.8406,253.2656 Q278.475,253.1344 278.1,253.1344 Q277.6406,253.1344 277.2562,253.3312 Q276.8812,253.5281 276.5813,253.9781 Q276.2906,254.4281 276.2906,255.0469 L276.2906,255.7031 Q276.2906,256.4437 276.825,256.9406 Q277.3594,257.4281 278.3156,257.4281 Q278.8781,257.4281 279.2719,257.2781 Q279.5062,257.1844 279.7594,256.9219 Q279.9188,256.7625 280.0031,256.7156 Q280.0969,256.6688 280.2188,256.6688 Q280.4156,256.6688 280.5656,256.8281 Q280.725,256.9781 280.725,257.1844 Q280.725,257.3906 280.5188,257.6344 Q280.2188,257.9813 279.7406,258.1781 Q279.0938,258.45 278.3156,258.45 Q277.4063,258.45 276.6844,258.075 Q276.0938,257.775 275.6813,257.1375 Q275.2688,256.4906 275.2688,255.7219 L275.2688,255.0281 Q275.2688,254.2313 275.6344,253.5469 Q276.0094,252.8531 276.6656,252.4875 Q277.3219,252.1125 278.0625,252.1125 Q278.5031,252.1125 278.8875,252.2156 Q279.2813,252.3094 279.6094,252.525 Z " fill="#000000"/><text fill="#000000" font-family="sans-serif" font-size="8.4" lengthAdjust="spacing" textLength="42.6" x="290.25" y="258.4781">HtmlBuilder</text><line style="stroke:#181818;stroke-width:0.3;" x1="192" x2="411.6" y1="264.6" y2="264.6"/><line style="stroke:#181818;stroke-width:0.3;" x1="192" x2="411.6" y1="269.4" y2="269.4"/><ellipse cx="198" cy="278.2863" fill="#84BE84" rx="1.8" ry="1.8" style="stroke:#038048;stroke-width:0.6;"/><text fill="#000000" font-family="sans-serif" font-size="8.4" lengthAdjust="spacing" textLength="36" x="203.4" y="280.8645">__init__()</text><ellipse cx="198" cy="289.459" fill="#84BE84" rx="1.8" ry="1.8" style="stroke:#038048;stroke-width:0.6;"/><text fill="#000000" font-family="sans-serif" font-size="8.4" lengthAdjust="spacing" textLength="205.2" x="203.4" y="292.0371">add(value: str, strategy: type[Strategy], specs: str = "")</text><ellipse cx="198" cy="300.6316" fill="#84BE84" rx="1.8" ry="1.8" style="stroke:#038048;stroke-width:0.6;"/><text fill="#000000" font-family="sans-serif" font-size="8.4" lengthAdjust="spacing" textLength="177.6" x="203.4" y="303.2098">create_content(value: str, specs: str) : HtmlTag</text><ellipse cx="198" cy="311.8043" fill="#84BE84" rx="1.8" ry="1.8" style="stroke:#038048;stroke-width:0.6;"/><text fill="#000000" font-family="sans-serif" font-size="8.4" lengthAdjust="spacing" textLength="100.2" x="203.4" y="314.3824">to_previous() : HtmlBuilder</text><ellipse cx="198" cy="322.977" fill="#84BE84" rx="1.8" ry="1.8" style="stroke:#038048;stroke-width:0.6;"/><text fill="#000000" font-family="sans-serif" font-size="8.4" lengthAdjust="spacing" textLength="43.8" x="203.4" y="325.5551">get_result()</text></g><!--class HtmlDirector--><g id="elem_HtmlDirector"><rect codeLine="51" fill="#F1F1F1" height="62.318" id="HtmlDirector" rx="1.5" ry="1.5" style="stroke:#181818;stroke-width:0.3;" width="298.2" x="152.7" y="130.2"/><ellipse cx="276.15" cy="139.8" fill="#ADD1B2" rx="6.6" ry="6.6" style="stroke:#181818;stroke-width:0.6;"/><path d="M277.8094,137.325 Q277.9031,137.1938 278.0156,137.1281 Q278.1281,137.0625 278.2594,137.0625 Q278.4844,137.0625 278.625,137.2219 Q278.7656,137.3719 278.7656,137.7375 L278.7656,138.6094 Q278.7656,138.975 278.625,139.1344 Q278.4844,139.2938 278.2594,139.2938 Q278.0531,139.2938 277.9313,139.1719 Q277.8094,139.0594 277.7438,138.75 Q277.7156,138.5344 277.6031,138.4219 Q277.4063,138.1969 277.0406,138.0656 Q276.675,137.9344 276.3,137.9344 Q275.8406,137.9344 275.4563,138.1313 Q275.0813,138.3281 274.7813,138.7781 Q274.4906,139.2281 274.4906,139.8469 L274.4906,140.5031 Q274.4906,141.2438 275.025,141.7406 Q275.5594,142.2281 276.5156,142.2281 Q277.0781,142.2281 277.4719,142.0781 Q277.7063,141.9844 277.9594,141.7219 Q278.1188,141.5625 278.2031,141.5156 Q278.2969,141.4688 278.4188,141.4688 Q278.6156,141.4688 278.7656,141.6281 Q278.925,141.7781 278.925,141.9844 Q278.925,142.1906 278.7188,142.4344 Q278.4188,142.7813 277.9406,142.9781 Q277.2938,143.25 276.5156,143.25 Q275.6063,143.25 274.8844,142.875 Q274.2938,142.575 273.8812,141.9375 Q273.4688,141.2906 273.4688,140.5219 L273.4688,139.8281 Q273.4688,139.0313 273.8344,138.3469 Q274.2094,137.6531 274.8656,137.2875 Q275.5219,136.9125 276.2625,136.9125 Q276.7031,136.9125 277.0875,137.0156 Q277.4813,137.1094 277.8094,137.325 Z " fill="#000000"/><text fill="#000000" font-family="sans-serif" font-size="8.4" lengthAdjust="spacing" textLength="46.2" x="288.45" y="143.2781">HtmlDirector</text><line style="stroke:#181818;stroke-width:0.3;" x1="153.3" x2="450.3" y1="149.4" y2="149.4"/><line style="stroke:#181818;stroke-width:0.3;" x1="153.3" x2="450.3" y1="154.2" y2="154.2"/><ellipse cx="159.3" cy="163.0863" fill="#84BE84" rx="1.8" ry="1.8" style="stroke:#038048;stroke-width:0.6;"/><text fill="#000000" font-family="sans-serif" font-size="8.4" lengthAdjust="spacing" textLength="36" x="164.7" y="165.6645">__init__()</text><ellipse cx="159.3" cy="174.259" fill="#84BE84" rx="1.8" ry="1.8" style="stroke:#038048;stroke-width:0.6;"/><text fill="#000000" font-family="sans-serif" font-size="8.4" lengthAdjust="spacing" textLength="282.6" x="164.7" y="176.8371">build_tree(sections_num: int, divs_num: int, div_style: Style, headers: bool)</text><ellipse cx="159.3" cy="185.4316" fill="#84BE84" rx="1.8" ry="1.8" style="stroke:#038048;stroke-width:0.6;"/><text fill="#000000" font-family="sans-serif" font-size="8.4" lengthAdjust="spacing" textLength="55.2" x="164.7" y="188.0098">get_html() : str</text></g><!--class HtmlTag--><g id="elem_HtmlTag"><rect fill="#F1F1F1" height="28.8" id="HtmlTag" rx="1.5" ry="1.5" style="stroke:#181818;stroke-width:0.3;" width="50.4" x="346.2" y="371.7"/><ellipse cx="355.2" cy="381.3" fill="#ADD1B2" rx="6.6" ry="6.6" style="stroke:#181818;stroke-width:0.6;"/><path d="M356.8594,378.825 Q356.9531,378.6937 357.0656,378.6281 Q357.1781,378.5625 357.3094,378.5625 Q357.5344,378.5625 357.675,378.7219 Q357.8156,378.8719 357.8156,379.2375 L357.8156,380.1094 Q357.8156,380.475 357.675,380.6344 Q357.5344,380.7938 357.3094,380.7938 Q357.1031,380.7938 356.9813,380.6719 Q356.8594,380.5594 356.7938,380.25 Q356.7656,380.0344 356.6531,379.9219 Q356.4563,379.6969 356.0906,379.5656 Q355.725,379.4344 355.35,379.4344 Q354.8906,379.4344 354.5062,379.6312 Q354.1312,379.8281 353.8313,380.2781 Q353.5406,380.7281 353.5406,381.3469 L353.5406,382.0031 Q353.5406,382.7438 354.075,383.2406 Q354.6094,383.7281 355.5656,383.7281 Q356.1281,383.7281 356.5219,383.5781 Q356.7562,383.4844 357.0094,383.2219 Q357.1688,383.0625 357.2531,383.0156 Q357.3469,382.9688 357.4688,382.9688 Q357.6656,382.9688 357.8156,383.1281 Q357.975,383.2781 357.975,383.4844 Q357.975,383.6906 357.7688,383.9344 Q357.4688,384.2813 356.9906,384.4781 Q356.3438,384.75 355.5656,384.75 Q354.6563,384.75 353.9344,384.375 Q353.3438,384.075 352.9313,383.4375 Q352.5188,382.7906 352.5188,382.0219 L352.5188,381.3281 Q352.5188,380.5313 352.8844,379.8469 Q353.2594,379.1531 353.9156,378.7875 Q354.5719,378.4125 355.3125,378.4125 Q355.7531,378.4125 356.1375,378.5156 Q356.5313,378.6094 356.8594,378.825 Z " fill="#000000"/><text fill="#000000" font-family="sans-serif" font-size="8.4" lengthAdjust="spacing" textLength="31.2" x="363.6" y="384.7781">HtmlTag</text><line style="stroke:#181818;stroke-width:0.3;" x1="346.8" x2="396" y1="390.9" y2="390.9"/><line style="stroke:#181818;stroke-width:0.3;" x1="346.8" x2="396" y1="395.7" y2="395.7"/></g><!--reverse link QObject to HtmlWidget--><g id="link_QObject_HtmlWidget"><path codeLine="57" d="M37.2825,71.5657 C40.9845,85.7437 43.416,95.034 48.162,113.208 " fill="none" id="QObject-backto-HtmlWidget" style="stroke:#181818;stroke-width:0.6;"/><polygon fill="none" points="34.554,61.116,33.7993,72.4752,40.7657,70.6562,34.554,61.116" style="stroke:#181818;stroke-width:0.6;"/></g><!--reverse link ABC to HtmlWidget--><g id="link_ABC_HtmlWidget"><path codeLine="58" d="M85.2753,71.5258 C81.3573,85.7038 78.78,95.034 73.752,113.208 " fill="none" id="ABC-backto-HtmlWidget" style="stroke:#181818;stroke-width:0.6;"/><polygon fill="none" points="88.152,61.116,81.8054,70.5669,88.7453,72.4847,88.152,61.116" style="stroke:#181818;stroke-width:0.6;"/></g><!--link HtmlWidget to Style--><g id="link_HtmlWidget_Style"><path codeLine="59" d="M60.6,209.472 C60.6,227.376 60.6,243.432 60.6,258.48 " fill="none" id="HtmlWidget-to-Style" style="stroke:#181818;stroke-width:0.6;"/><polygon fill="#181818" points="60.6,262.08,63,256.68,60.6,259.08,58.2,256.68,60.6,262.08" style="stroke:#181818;stroke-width:0.6;"/></g><!--link HtmlAdapter to HtmlDirector--><g id="link_HtmlAdapter_HtmlDirector"><path codeLine="60" d="M301.8,77.55 C301.8,94.296 301.8,110.388 301.8,126.414 " fill="none" id="HtmlAdapter-to-HtmlDirector" style="stroke:#181818;stroke-width:0.6;"/><polygon fill="#181818" points="301.8,130.014,304.2,124.614,301.8,127.014,299.4,124.614,301.8,130.014" style="stroke:#181818;stroke-width:0.6;"/></g><!--reverse link Strategy to Node--><g id="link_Strategy_Node"><path codeLine="61" d="M195.8449,412.5357 C180.5269,423.5997 170.172,431.082 154.848,442.158 " fill="none" id="Strategy-backto-Node" style="stroke:#181818;stroke-width:0.6;"/><polygon fill="none" points="204.6,406.212,193.737,409.6173,197.9528,415.454,204.6,406.212" style="stroke:#181818;stroke-width:0.6;"/></g><!--reverse link Strategy to Leaf--><g id="link_Strategy_Leaf"><path codeLine="62" d="M267.5286,412.5113 C282.9366,423.5753 293.382,431.082 308.796,442.158 " fill="none" id="Strategy-backto-Leaf" style="stroke:#181818;stroke-width:0.6;"/><polygon fill="none" points="258.756,406.212,265.4288,415.4355,269.6284,409.5871,258.756,406.212" style="stroke:#181818;stroke-width:0.6;"/></g><!--link HtmlBuilder to Strategy--><g id="link_HtmlBuilder_Strategy"><path codeLine="63" d="M271.62,330.084 C262.626,342.54 255.3012,352.6772 247.8552,362.9912 " fill="none" id="HtmlBuilder-to-Strategy" style="stroke:#181818;stroke-width:0.6;"/><polygon fill="#181818" points="245.748,365.91,250.8547,362.9365,247.504,363.4776,246.9629,360.1269,245.748,365.91" style="stroke:#181818;stroke-width:0.6;"/></g><!--link HtmlBuilder to HtmlTag--><g id="link_HtmlBuilder_HtmlTag"><path codeLine="64" d="M331.722,330.084 C342.408,345.006 351.6217,357.8773 359.4217,368.7673 " fill="none" id="HtmlBuilder-to-HtmlTag" style="stroke:#181818;stroke-width:0.6;"/><polygon fill="#181818" points="361.518,371.694,360.3247,365.9064,359.7711,369.2551,356.4225,368.7014,361.518,371.694" style="stroke:#181818;stroke-width:0.6;"/></g><!--link HtmlDirector to HtmlBuilder--><g id="link_HtmlDirector_HtmlBuilder"><path codeLine="65" d="M301.8,192.6 C301.8,208.446 301.8,224.424 301.8,241.644 " fill="none" id="HtmlDirector-to-HtmlBuilder" style="stroke:#181818;stroke-width:0.6;"/><polygon fill="#181818" points="301.8,245.244,304.2,239.844,301.8,242.244,299.4,239.844,301.8,245.244" style="stroke:#181818;stroke-width:0.6;"/></g><!--SRC=[fLF1IiGm4BttAyAUkjZT3rXKMFNWGHHHy20IqcQiaMnIadIXgFzk9cbZkYvUF9LvatbzC_E6rTOPrZZII6OjkR-hty577mKXw_Mw-2eADd-nlRZCin6yTZlv97WBiVB4UWwXbIsNP4E4SeXniP_5jJOS3F20rLfB1D-0UT3Ei4PBRGBYXI30f6ZL3fHBO1Bou0O9KODYEqWbjUR3mLFKlEMiSs1Y0QL22KTfkGmLlP2STgo5KjVlcwp5aFPV-kQXN5TZW3cW5ZMKGNL8LIG97kEfzTXZHP9KSaOMZLQE2GLcWTIXeIDhUF21WtQ8qXddfTBSaqXXtVDM3IyLsJFPGnJ-o5eaIycVATpwglzot01x_Iy7PYzmvCUtWSGZJvYW7TlV43Tqy3nDm__DTj3ODCp5CbiCJXPTCoDApr7Og15hdAQTWRtGVNHZ9d3Qlm7RIs_2UHTNmdZtwpzCvGn0EPq8LVqkt4H5y4BcOVJIw8AAZDSHRNFSXbxATCEddwjLPji2B_SGomvtjJeVtPPV1g9vLqKoNg12-nn0w8OYNsSaZaz-9QQ9poOt9QPvVmC0]--></g></svg>