<?xml version="1.0" encoding="us-ascii" standalone="no"?><svg xmlns="http://www.w3.org/2000/svg" xmlns:xlink="http://www.w3.org/1999/xlink" contentStyleType="text/css" height="977.4px" preserveAspectRatio="none" style="width:1074px;height:977px;background:#FFFFFF;" version="1.1" viewBox="0 0 1074 977" width="1074.6px" zoomAndPan="magnify"><defs/><g><!--class QObject--><g id="elem_QObject"><rect codeLine="2" fill="#F1F1F1" height="59.959" id="QObject" rx="2.25" ry="2.25" style="stroke:#181818;stroke-width:0.45;" width="75.6" x="142.2" y="31.05"/><ellipse cx="155.7" cy="45.45" fill="#A9DCDF" rx="9.9" ry="9.9" style="stroke:#181818;stroke-width:0.9;"/><path d="M157.6688,47.0391 L153.9422,47.0391 L153.5625,47.9672 L153.9422,47.9672 Q154.4906,47.9672 154.7297,48.1781 Q154.9688,48.3891 154.9688,48.7406 Q154.9688,49.0781 154.7297,49.2891 Q154.4906,49.5 153.9422,49.5 L151.875,49.5 Q151.3266,49.5 151.1016,49.2891 Q150.8625,49.0781 150.8625,48.7266 Q150.8625,48.3891 151.1156,48.1781 Q151.3547,47.9531 151.9172,47.9672 L154.3219,41.9766 L153.3234,41.9766 Q152.775,41.9766 152.5359,41.7656 Q152.2969,41.5547 152.2969,41.2031 Q152.2969,40.8656 152.5359,40.6547 Q152.775,40.4438 153.3234,40.4438 L156.6281,40.4438 L159.6797,47.9672 Q160.2141,47.9672 160.3828,48.0938 Q160.7344,48.3328 160.7344,48.7406 Q160.7344,49.0781 160.4953,49.2891 Q160.2703,49.5 159.7219,49.5 L157.6547,49.5 Q157.1063,49.5 156.8672,49.2891 Q156.6281,49.0781 156.6281,48.7266 Q156.6281,48.3891 156.8672,48.1781 Q157.1063,47.9672 157.6547,47.9672 L158.0344,47.9672 L157.6688,47.0391 Z M157.0219,45.5063 L155.7984,42.4688 L154.5609,45.5063 L157.0219,45.5063 Z " fill="#000000"/><text fill="#000000" font-family="sans-serif" font-size="12.6" font-style="italic" lengthAdjust="spacing" textLength="46.8" x="168.3" y="50.6672">QObject</text><line style="stroke:#181818;stroke-width:0.45;" x1="143.1" x2="216.9" y1="59.85" y2="59.85"/><text fill="#000000" font-family="sans-serif" font-size="12.6" lengthAdjust="spacing" textLength="10.8" x="147.6" y="77.0467">...</text><line style="stroke:#181818;stroke-width:0.45;" x1="143.1" x2="216.9" y1="83.809" y2="83.809"/></g><!--class ABC--><g id="elem_ABC"><rect codeLine="6" fill="#F1F1F1" height="59.959" id="ABC" rx="2.25" ry="2.25" style="stroke:#181818;stroke-width:0.45;" width="54" x="249.3" y="31.05"/><ellipse cx="262.8" cy="45.45" fill="#A9DCDF" rx="9.9" ry="9.9" style="stroke:#181818;stroke-width:0.9;"/><path d="M264.7688,47.0391 L261.0422,47.0391 L260.6625,47.9672 L261.0422,47.9672 Q261.5906,47.9672 261.8297,48.1781 Q262.0688,48.3891 262.0688,48.7406 Q262.0688,49.0781 261.8297,49.2891 Q261.5906,49.5 261.0422,49.5 L258.975,49.5 Q258.4266,49.5 258.2016,49.2891 Q257.9625,49.0781 257.9625,48.7266 Q257.9625,48.3891 258.2156,48.1781 Q258.4547,47.9531 259.0172,47.9672 L261.4219,41.9766 L260.4234,41.9766 Q259.875,41.9766 259.6359,41.7656 Q259.3969,41.5547 259.3969,41.2031 Q259.3969,40.8656 259.6359,40.6547 Q259.875,40.4438 260.4234,40.4438 L263.7281,40.4438 L266.7797,47.9672 Q267.3141,47.9672 267.4828,48.0938 Q267.8344,48.3328 267.8344,48.7406 Q267.8344,49.0781 267.5953,49.2891 Q267.3703,49.5 266.8219,49.5 L264.7547,49.5 Q264.2063,49.5 263.9672,49.2891 Q263.7281,49.0781 263.7281,48.7266 Q263.7281,48.3891 263.9672,48.1781 Q264.2063,47.9672 264.7547,47.9672 L265.1344,47.9672 L264.7688,47.0391 Z M264.1219,45.5063 L262.8984,42.4688 L261.6609,45.5063 L264.1219,45.5063 Z " fill="#000000"/><text fill="#000000" font-family="sans-serif" font-size="12.6" font-style="italic" lengthAdjust="spacing" textLength="25.2" x="275.4" y="50.6672">ABC</text><line style="stroke:#181818;stroke-width:0.45;" x1="250.2" x2="302.4" y1="59.85" y2="59.85"/><text fill="#000000" font-family="sans-serif" font-size="12.6" lengthAdjust="spacing" textLength="10.8" x="254.7" y="77.0467">...</text><line style="stroke:#181818;stroke-width:0.45;" x1="250.2" x2="302.4" y1="83.809" y2="83.809"/></g><!--class HtmlWidget--><g id="elem_HtmlWidget"><rect codeLine="10" fill="#F1F1F1" height="143.7539" id="HtmlWidget" rx="2.25" ry="2.25" style="stroke:#181818;stroke-width:0.45;" width="107.1" x="222.75" y="170.1"/><ellipse cx="241.92" cy="184.5" fill="#A9DCDF" rx="9.9" ry="9.9" style="stroke:#181818;stroke-width:0.9;"/><path d="M243.8888,186.0891 L240.1622,186.0891 L239.7825,187.0172 L240.1622,187.0172 Q240.7106,187.0172 240.9497,187.2281 Q241.1888,187.4391 241.1888,187.7906 Q241.1888,188.1281 240.9497,188.3391 Q240.7106,188.55 240.1622,188.55 L238.095,188.55 Q237.5466,188.55 237.3216,188.3391 Q237.0825,188.1281 237.0825,187.7766 Q237.0825,187.4391 237.3356,187.2281 Q237.5747,187.0031 238.1372,187.0172 L240.5419,181.0266 L239.5434,181.0266 Q238.995,181.0266 238.7559,180.8156 Q238.5169,180.6047 238.5169,180.2531 Q238.5169,179.9156 238.7559,179.7047 Q238.995,179.4938 239.5434,179.4938 L242.8481,179.4938 L245.8997,187.0172 Q246.4341,187.0172 246.6028,187.1438 Q246.9544,187.3828 246.9544,187.7906 Q246.9544,188.1281 246.7153,188.3391 Q246.4903,188.55 245.9419,188.55 L243.8747,188.55 Q243.3263,188.55 243.0872,188.3391 Q242.8481,188.1281 242.8481,187.7766 Q242.8481,187.4391 243.0872,187.2281 Q243.3263,187.0172 243.8747,187.0172 L244.2544,187.0172 L243.8888,186.0891 Z M243.2419,184.5563 L242.0184,181.5188 L240.7809,184.5563 L243.2419,184.5563 Z " fill="#000000"/><text fill="#000000" font-family="sans-serif" font-size="12.6" font-style="italic" lengthAdjust="spacing" textLength="65.7" x="255.78" y="189.7172">HtmlWidget</text><line style="stroke:#181818;stroke-width:0.45;" x1="223.65" x2="328.95" y1="198.9" y2="198.9"/><line style="stroke:#181818;stroke-width:0.45;" x1="223.65" x2="328.95" y1="206.1" y2="206.1"/><text fill="#000000" font-family="sans-serif" font-size="12.6" font-style="italic" lengthAdjust="spacing" textLength="80.1" x="228.15" y="223.2967">sections() : int</text><text fill="#000000" font-family="sans-serif" font-size="12.6" font-style="italic" lengthAdjust="spacing" textLength="54.9" x="228.15" y="240.0557">divs() : int</text><text fill="#000000" font-family="sans-serif" font-size="12.6" font-style="italic" lengthAdjust="spacing" textLength="96.3" x="228.15" y="256.8146">bordered() : bool</text><text fill="#000000" font-family="sans-serif" font-size="12.6" font-style="italic" lengthAdjust="spacing" textLength="90.9" x="228.15" y="273.5736">headers() : bool</text><text fill="#000000" font-family="sans-serif" font-size="12.6" font-style="italic" lengthAdjust="spacing" textLength="62.1" x="228.15" y="290.3326">color() : str</text><text fill="#000000" font-family="sans-serif" font-size="12.6" font-style="italic" lengthAdjust="spacing" textLength="89.1" x="228.15" y="307.0916">alignment() : str</text></g><!--class Style--><g id="elem_Style"><rect codeLine="19" fill="#F1F1F1" height="76.718" id="Style" rx="2.25" ry="2.25" style="stroke:#181818;stroke-width:0.45;" width="76.5" x="238.05" y="409.95"/><ellipse cx="260.46" cy="424.35" fill="#ADD1B2" rx="9.9" ry="9.9" style="stroke:#181818;stroke-width:0.9;"/><path d="M262.9491,420.6375 Q263.0897,420.4406 263.2584,420.3422 Q263.4272,420.2438 263.6241,420.2438 Q263.9616,420.2438 264.1725,420.4828 Q264.3834,420.7078 264.3834,421.2563 L264.3834,422.5641 Q264.3834,423.1125 264.1725,423.3516 Q263.9616,423.5906 263.6241,423.5906 Q263.3147,423.5906 263.1319,423.4078 Q262.9491,423.2391 262.8506,422.775 Q262.8084,422.4516 262.6397,422.2828 Q262.3444,421.9453 261.7959,421.7484 Q261.2475,421.5516 260.685,421.5516 Q259.9959,421.5516 259.4194,421.8469 Q258.8569,422.1422 258.4069,422.8172 Q257.9709,423.4922 257.9709,424.4203 L257.9709,425.4047 Q257.9709,426.5156 258.7725,427.2609 Q259.5741,427.9922 261.0084,427.9922 Q261.8522,427.9922 262.4428,427.7672 Q262.7944,427.6266 263.1741,427.2328 Q263.4131,426.9938 263.5397,426.9234 Q263.6803,426.8531 263.8631,426.8531 Q264.1584,426.8531 264.3834,427.0922 Q264.6225,427.3172 264.6225,427.6266 Q264.6225,427.9359 264.3131,428.3016 Q263.8631,428.8219 263.1459,429.1172 Q262.1756,429.525 261.0084,429.525 Q259.6444,429.525 258.5616,428.9625 Q257.6756,428.5125 257.0569,427.5563 Q256.4381,426.5859 256.4381,425.4328 L256.4381,424.3922 Q256.4381,423.1969 256.9866,422.1703 Q257.5491,421.1297 258.5334,420.5813 Q259.5178,420.0188 260.6287,420.0188 Q261.2897,420.0188 261.8663,420.1734 Q262.4569,420.3141 262.9491,420.6375 Z " fill="#000000"/><text fill="#000000" font-family="sans-serif" font-size="12.6" lengthAdjust="spacing" textLength="27.9" x="275.04" y="429.5672">Style</text><line style="stroke:#181818;stroke-width:0.45;" x1="238.95" x2="313.65" y1="438.75" y2="438.75"/><ellipse cx="247.95" cy="452.0795" fill="none" rx="2.7" ry="2.7" style="stroke:#038048;stroke-width:0.9;"/><text fill="#000000" font-family="sans-serif" font-size="12.6" lengthAdjust="spacing" textLength="53.1" x="256.05" y="455.9467">name: str</text><ellipse cx="247.95" cy="468.8385" fill="none" rx="2.7" ry="2.7" style="stroke:#038048;stroke-width:0.9;"/><text fill="#000000" font-family="sans-serif" font-size="12.6" lengthAdjust="spacing" textLength="49.5" x="256.05" y="472.7057">body: str</text><line style="stroke:#181818;stroke-width:0.45;" x1="238.95" x2="313.65" y1="479.468" y2="479.468"/></g><!--class HtmlAdapter--><g id="elem_HtmlAdapter"><rect codeLine="24" fill="#F1F1F1" height="110.2359" id="HtmlAdapter" rx="2.25" ry="2.25" style="stroke:#181818;stroke-width:0.45;" width="501.3" x="335.25" y="6.3"/><ellipse cx="547.425" cy="20.7" fill="#ADD1B2" rx="9.9" ry="9.9" style="stroke:#181818;stroke-width:0.9;"/><path d="M549.9141,16.9875 Q550.0547,16.7906 550.2234,16.6922 Q550.3922,16.5938 550.5891,16.5938 Q550.9266,16.5938 551.1375,16.8328 Q551.3484,17.0578 551.3484,17.6063 L551.3484,18.9141 Q551.3484,19.4625 551.1375,19.7016 Q550.9266,19.9406 550.5891,19.9406 Q550.2797,19.9406 550.0969,19.7578 Q549.9141,19.5891 549.8156,19.125 Q549.7734,18.8016 549.6047,18.6328 Q549.3094,18.2953 548.7609,18.0984 Q548.2125,17.9016 547.65,17.9016 Q546.9609,17.9016 546.3844,18.1969 Q545.8219,18.4922 545.3719,19.1672 Q544.9359,19.8422 544.9359,20.7703 L544.9359,21.7547 Q544.9359,22.8656 545.7375,23.6109 Q546.5391,24.3422 547.9734,24.3422 Q548.8172,24.3422 549.4078,24.1172 Q549.7594,23.9766 550.1391,23.5828 Q550.3781,23.3438 550.5047,23.2734 Q550.6453,23.2031 550.8281,23.2031 Q551.1234,23.2031 551.3484,23.4422 Q551.5875,23.6672 551.5875,23.9766 Q551.5875,24.2859 551.2781,24.6516 Q550.8281,25.1719 550.1109,25.4672 Q549.1406,25.875 547.9734,25.875 Q546.6094,25.875 545.5266,25.3125 Q544.6406,24.8625 544.0219,23.9063 Q543.4031,22.9359 543.4031,21.7828 L543.4031,20.7422 Q543.4031,19.5469 543.9516,18.5203 Q544.5141,17.4797 545.4984,16.9313 Q546.4828,16.3688 547.5938,16.3688 Q548.2547,16.3688 548.8313,16.5234 Q549.4219,16.6641 549.9141,16.9875 Z " fill="#000000"/><text fill="#000000" font-family="sans-serif" font-size="12.6" lengthAdjust="spacing" textLength="69.3" x="565.875" y="25.9172">HtmlAdapter</text><line style="stroke:#181818;stroke-width:0.45;" x1="336.15" x2="835.65" y1="35.1" y2="35.1"/><ellipse cx="345.15" cy="48.4295" fill="none" rx="2.7" ry="2.7" style="stroke:#038048;stroke-width:0.9;"/><text fill="#000000" font-family="sans-serif" font-size="12.6" lengthAdjust="spacing" textLength="119.7" x="353.25" y="52.2967">director: HtmlDirector</text><line style="stroke:#181818;stroke-width:0.45;" x1="336.15" x2="835.65" y1="59.059" y2="59.059"/><ellipse cx="345.15" cy="72.3885" fill="#84BE84" rx="2.7" ry="2.7" style="stroke:#038048;stroke-width:0.9;"/><text fill="#000000" font-family="sans-serif" font-size="12.6" lengthAdjust="spacing" textLength="160.2" x="353.25" y="76.2557">build_page(obj: HtmlWidget)</text><ellipse cx="345.15" cy="89.1475" fill="#84BE84" rx="2.7" ry="2.7" style="stroke:#038048;stroke-width:0.9;"/><text fill="#000000" font-family="sans-serif" font-size="12.6" lengthAdjust="spacing" textLength="82.8" x="353.25" y="93.0146">get_html() : str</text><ellipse cx="345.15" cy="105.9064" fill="#84BE84" rx="2.7" ry="2.7" style="stroke:#038048;stroke-width:0.9;"/><text fill="#000000" font-family="sans-serif" font-size="12.6" lengthAdjust="spacing" textLength="477.9" x="353.25" y="109.7736">create_style(color: str, alignment: str, bordered: bool, name: str = "container") : Style</text></g><!--class Strategy--><g id="elem_Strategy"><rect codeLine="31" fill="#F1F1F1" height="59.959" id="Strategy" rx="2.25" ry="2.25" style="stroke:#181818;stroke-width:0.45;" width="268.2" x="324.9" y="624.15"/><ellipse cx="431.325" cy="638.55" fill="#A9DCDF" rx="9.9" ry="9.9" style="stroke:#181818;stroke-width:0.9;"/><path d="M433.2938,640.1391 L429.5672,640.1391 L429.1875,641.0672 L429.5672,641.0672 Q430.1156,641.0672 430.3547,641.2781 Q430.5938,641.4891 430.5938,641.8406 Q430.5938,642.1781 430.3547,642.3891 Q430.1156,642.6 429.5672,642.6 L427.5,642.6 Q426.9516,642.6 426.7266,642.3891 Q426.4875,642.1781 426.4875,641.8266 Q426.4875,641.4891 426.7406,641.2781 Q426.9797,641.0531 427.5422,641.0672 L429.9469,635.0766 L428.9484,635.0766 Q428.4,635.0766 428.1609,634.8656 Q427.9219,634.6547 427.9219,634.3031 Q427.9219,633.9656 428.1609,633.7547 Q428.4,633.5438 428.9484,633.5438 L432.2531,633.5438 L435.3047,641.0672 Q435.8391,641.0672 436.0078,641.1938 Q436.3594,641.4328 436.3594,641.8406 Q436.3594,642.1781 436.1203,642.3891 Q435.8953,642.6 435.3469,642.6 L433.2797,642.6 Q432.7313,642.6 432.4922,642.3891 Q432.2531,642.1781 432.2531,641.8266 Q432.2531,641.4891 432.4922,641.2781 Q432.7313,641.0672 433.2797,641.0672 L433.6594,641.0672 L433.2938,640.1391 Z M432.6469,638.6063 L431.4234,635.5688 L430.1859,638.6063 L432.6469,638.6063 Z " fill="#000000"/><text fill="#000000" font-family="sans-serif" font-size="12.6" font-style="italic" lengthAdjust="spacing" textLength="47.7" x="449.775" y="643.7672">Strategy</text><line style="stroke:#181818;stroke-width:0.45;" x1="325.8" x2="592.2" y1="652.95" y2="652.95"/><line style="stroke:#181818;stroke-width:0.45;" x1="325.8" x2="592.2" y1="660.15" y2="660.15"/><text fill="#000000" font-family="sans-serif" font-size="12.6" font-style="italic" lengthAdjust="spacing" textLength="257.4" x="330.3" y="677.3467">add(node: list[Any], value: HtmlTag) : list[Any]</text></g><!--class Node--><g id="elem_Node"><rect codeLine="35" fill="#F1F1F1" height="59.959" id="Node" rx="2.25" ry="2.25" style="stroke:#181818;stroke-width:0.45;" width="280.8" x="6.3" y="780.3"/><ellipse cx="128.025" cy="794.7" fill="#ADD1B2" rx="9.9" ry="9.9" style="stroke:#181818;stroke-width:0.9;"/><path d="M130.5141,790.9875 Q130.6547,790.7906 130.8234,790.6922 Q130.9922,790.5938 131.1891,790.5938 Q131.5266,790.5938 131.7375,790.8328 Q131.9484,791.0578 131.9484,791.6063 L131.9484,792.9141 Q131.9484,793.4625 131.7375,793.7016 Q131.5266,793.9406 131.1891,793.9406 Q130.8797,793.9406 130.6969,793.7578 Q130.5141,793.5891 130.4156,793.125 Q130.3734,792.8016 130.2047,792.6328 Q129.9094,792.2953 129.3609,792.0984 Q128.8125,791.9016 128.25,791.9016 Q127.5609,791.9016 126.9844,792.1969 Q126.4219,792.4922 125.9719,793.1672 Q125.5359,793.8422 125.5359,794.7703 L125.5359,795.7547 Q125.5359,796.8656 126.3375,797.6109 Q127.1391,798.3422 128.5734,798.3422 Q129.4172,798.3422 130.0078,798.1172 Q130.3594,797.9766 130.7391,797.5828 Q130.9781,797.3438 131.1047,797.2734 Q131.2453,797.2031 131.4281,797.2031 Q131.7234,797.2031 131.9484,797.4422 Q132.1875,797.6672 132.1875,797.9766 Q132.1875,798.2859 131.8781,798.6516 Q131.4281,799.1719 130.7109,799.4672 Q129.7406,799.875 128.5734,799.875 Q127.2094,799.875 126.1266,799.3125 Q125.2406,798.8625 124.6219,797.9063 Q124.0031,796.9359 124.0031,795.7828 L124.0031,794.7422 Q124.0031,793.5469 124.5516,792.5203 Q125.1141,791.4797 126.0984,790.9313 Q127.0828,790.3688 128.1938,790.3688 Q128.8547,790.3688 129.4313,790.5234 Q130.0219,790.6641 130.5141,790.9875 Z " fill="#000000"/><text fill="#000000" font-family="sans-serif" font-size="12.6" lengthAdjust="spacing" textLength="29.7" x="146.475" y="799.9172">Node</text><line style="stroke:#181818;stroke-width:0.45;" x1="7.2" x2="286.2" y1="809.1" y2="809.1"/><line style="stroke:#181818;stroke-width:0.45;" x1="7.2" x2="286.2" y1="816.3" y2="816.3"/><ellipse cx="16.2" cy="829.6295" fill="#84BE84" rx="2.7" ry="2.7" style="stroke:#038048;stroke-width:0.9;"/><text fill="#000000" font-family="sans-serif" font-size="12.6" lengthAdjust="spacing" textLength="257.4" x="24.3" y="833.4967">add(node: list[Any], value: HtmlTag) : list[Any]</text></g><!--class Leaf--><g id="elem_Leaf"><rect codeLine="39" fill="#F1F1F1" height="59.959" id="Leaf" rx="2.25" ry="2.25" style="stroke:#181818;stroke-width:0.45;" width="280.8" x="318.6" y="780.3"/><ellipse cx="442.575" cy="794.7" fill="#ADD1B2" rx="9.9" ry="9.9" style="stroke:#181818;stroke-width:0.9;"/><path d="M445.0641,790.9875 Q445.2047,790.7906 445.3734,790.6922 Q445.5422,790.5938 445.7391,790.5938 Q446.0766,790.5938 446.2875,790.8328 Q446.4984,791.0578 446.4984,791.6063 L446.4984,792.9141 Q446.4984,793.4625 446.2875,793.7016 Q446.0766,793.9406 445.7391,793.9406 Q445.4297,793.9406 445.2469,793.7578 Q445.0641,793.5891 444.9656,793.125 Q444.9234,792.8016 444.7547,792.6328 Q444.4594,792.2953 443.9109,792.0984 Q443.3625,791.9016 442.8,791.9016 Q442.1109,791.9016 441.5344,792.1969 Q440.9719,792.4922 440.5219,793.1672 Q440.0859,793.8422 440.0859,794.7703 L440.0859,795.7547 Q440.0859,796.8656 440.8875,797.6109 Q441.6891,798.3422 443.1234,798.3422 Q443.9672,798.3422 444.5578,798.1172 Q444.9094,797.9766 445.2891,797.5828 Q445.5281,797.3438 445.6547,797.2734 Q445.7953,797.2031 445.9781,797.2031 Q446.2734,797.2031 446.4984,797.4422 Q446.7375,797.6672 446.7375,797.9766 Q446.7375,798.2859 446.4281,798.6516 Q445.9781,799.1719 445.2609,799.4672 Q444.2906,799.875 443.1234,799.875 Q441.7594,799.875 440.6766,799.3125 Q439.7906,798.8625 439.1719,797.9063 Q438.5531,796.9359 438.5531,795.7828 L438.5531,794.7422 Q438.5531,793.5469 439.1016,792.5203 Q439.6641,791.4797 440.6484,790.9313 Q441.6328,790.3688 442.7438,790.3688 Q443.4047,790.3688 443.9813,790.5234 Q444.5719,790.6641 445.0641,790.9875 Z " fill="#000000"/><text fill="#000000" font-family="sans-serif" font-size="12.6" lengthAdjust="spacing" textLength="25.2" x="461.025" y="799.9172">Leaf</text><line style="stroke:#181818;stroke-width:0.45;" x1="319.5" x2="598.5" y1="809.1" y2="809.1"/><line style="stroke:#181818;stroke-width:0.45;" x1="319.5" x2="598.5" y1="816.3" y2="816.3"/><ellipse cx="328.5" cy="829.6295" fill="#84BE84" rx="2.7" ry="2.7" style="stroke:#038048;stroke-width:0.9;"/><text fill="#000000" font-family="sans-serif" font-size="12.6" lengthAdjust="spacing" textLength="257.4" x="336.6" y="833.4967">add(node: list[Any], value: HtmlTag) : list[Any]</text></g><!--class HtmlBuilder--><g id="elem_HtmlBuilder"><rect codeLine="43" fill="#F1F1F1" height="160.5129" id="HtmlBuilder" rx="2.25" ry="2.25" style="stroke:#181818;stroke-width:0.45;" width="331.2" x="420.3" y="368.1"/><ellipse cx="550.125" cy="382.5" fill="#ADD1B2" rx="9.9" ry="9.9" style="stroke:#181818;stroke-width:0.9;"/><path d="M552.6141,378.7875 Q552.7547,378.5906 552.9234,378.4922 Q553.0922,378.3938 553.2891,378.3938 Q553.6266,378.3938 553.8375,378.6328 Q554.0484,378.8578 554.0484,379.4063 L554.0484,380.7141 Q554.0484,381.2625 553.8375,381.5016 Q553.6266,381.7406 553.2891,381.7406 Q552.9797,381.7406 552.7969,381.5578 Q552.6141,381.3891 552.5156,380.925 Q552.4734,380.6016 552.3047,380.4328 Q552.0094,380.0953 551.4609,379.8984 Q550.9125,379.7016 550.35,379.7016 Q549.6609,379.7016 549.0844,379.9969 Q548.5219,380.2922 548.0719,380.9672 Q547.6359,381.6422 547.6359,382.5703 L547.6359,383.5547 Q547.6359,384.6656 548.4375,385.4109 Q549.2391,386.1422 550.6734,386.1422 Q551.5172,386.1422 552.1078,385.9172 Q552.4594,385.7766 552.8391,385.3828 Q553.0781,385.1438 553.2047,385.0734 Q553.3453,385.0031 553.5281,385.0031 Q553.8234,385.0031 554.0484,385.2422 Q554.2875,385.4672 554.2875,385.7766 Q554.2875,386.0859 553.9781,386.4516 Q553.5281,386.9719 552.8109,387.2672 Q551.8406,387.675 550.6734,387.675 Q549.3094,387.675 548.2266,387.1125 Q547.3406,386.6625 546.7219,385.7063 Q546.1031,384.7359 546.1031,383.5828 L546.1031,382.5422 Q546.1031,381.3469 546.6516,380.3203 Q547.2141,379.2797 548.1984,378.7313 Q549.1828,378.1688 550.2938,378.1688 Q550.9547,378.1688 551.5313,378.3234 Q552.1219,378.4641 552.6141,378.7875 Z " fill="#000000"/><text fill="#000000" font-family="sans-serif" font-size="12.6" lengthAdjust="spacing" textLength="63.9" x="568.575" y="387.7172">HtmlBuilder</text><line style="stroke:#181818;stroke-width:0.45;" x1="421.2" x2="750.6" y1="396.9" y2="396.9"/><ellipse cx="430.2" cy="410.2295" fill="none" rx="2.7" ry="2.7" style="stroke:#038048;stroke-width:0.9;"/><text fill="#000000" font-family="sans-serif" font-size="12.6" lengthAdjust="spacing" textLength="45" x="438.3" y="414.0967">tree: list</text><ellipse cx="430.2" cy="426.9885" fill="none" rx="2.7" ry="2.7" style="stroke:#038048;stroke-width:0.9;"/><text fill="#000000" font-family="sans-serif" font-size="12.6" lengthAdjust="spacing" textLength="84.6" x="438.3" y="430.8557">branch_ptr: list</text><ellipse cx="430.2" cy="443.7475" fill="none" rx="2.7" ry="2.7" style="stroke:#038048;stroke-width:0.9;"/><text fill="#000000" font-family="sans-serif" font-size="12.6" lengthAdjust="spacing" textLength="108.9" x="438.3" y="447.6146">node_stack: deque</text><line style="stroke:#181818;stroke-width:0.45;" x1="421.2" x2="750.6" y1="454.377" y2="454.377"/><ellipse cx="430.2" cy="467.7064" fill="#84BE84" rx="2.7" ry="2.7" style="stroke:#038048;stroke-width:0.9;"/><text fill="#000000" font-family="sans-serif" font-size="12.6" lengthAdjust="spacing" textLength="307.8" x="438.3" y="471.5736">add(value: str, strategy: type[Strategy], specs: str = "")</text><ellipse cx="430.2" cy="484.4654" fill="#84BE84" rx="2.7" ry="2.7" style="stroke:#038048;stroke-width:0.9;"/><text fill="#000000" font-family="sans-serif" font-size="12.6" lengthAdjust="spacing" textLength="266.4" x="438.3" y="488.3326">create_content(value: str, specs: str) : HtmlTag</text><ellipse cx="430.2" cy="501.2244" fill="#84BE84" rx="2.7" ry="2.7" style="stroke:#038048;stroke-width:0.9;"/><text fill="#000000" font-family="sans-serif" font-size="12.6" lengthAdjust="spacing" textLength="150.3" x="438.3" y="505.0916">to_previous() : HtmlBuilder</text><ellipse cx="430.2" cy="517.9834" fill="#84BE84" rx="2.7" ry="2.7" style="stroke:#038048;stroke-width:0.9;"/><text fill="#000000" font-family="sans-serif" font-size="12.6" lengthAdjust="spacing" textLength="65.7" x="438.3" y="521.8506">get_result()</text></g><!--class HtmlDirector--><g id="elem_HtmlDirector"><rect codeLine="53" fill="#F1F1F1" height="93.477" id="HtmlDirector" rx="2.25" ry="2.25" style="stroke:#181818;stroke-width:0.45;" width="447.3" x="362.25" y="195.3"/><ellipse cx="547.425" cy="209.7" fill="#ADD1B2" rx="9.9" ry="9.9" style="stroke:#181818;stroke-width:0.9;"/><path d="M549.9141,205.9875 Q550.0547,205.7906 550.2234,205.6922 Q550.3922,205.5938 550.5891,205.5938 Q550.9266,205.5938 551.1375,205.8328 Q551.3484,206.0578 551.3484,206.6063 L551.3484,207.9141 Q551.3484,208.4625 551.1375,208.7016 Q550.9266,208.9406 550.5891,208.9406 Q550.2797,208.9406 550.0969,208.7578 Q549.9141,208.5891 549.8156,208.125 Q549.7734,207.8016 549.6047,207.6328 Q549.3094,207.2953 548.7609,207.0984 Q548.2125,206.9016 547.65,206.9016 Q546.9609,206.9016 546.3844,207.1969 Q545.8219,207.4922 545.3719,208.1672 Q544.9359,208.8422 544.9359,209.7703 L544.9359,210.7547 Q544.9359,211.8656 545.7375,212.6109 Q546.5391,213.3422 547.9734,213.3422 Q548.8172,213.3422 549.4078,213.1172 Q549.7594,212.9766 550.1391,212.5828 Q550.3781,212.3438 550.5047,212.2734 Q550.6453,212.2031 550.8281,212.2031 Q551.1234,212.2031 551.3484,212.4422 Q551.5875,212.6672 551.5875,212.9766 Q551.5875,213.2859 551.2781,213.6516 Q550.8281,214.1719 550.1109,214.4672 Q549.1406,214.875 547.9734,214.875 Q546.6094,214.875 545.5266,214.3125 Q544.6406,213.8625 544.0219,212.9063 Q543.4031,211.9359 543.4031,210.7828 L543.4031,209.7422 Q543.4031,208.5469 543.9516,207.5203 Q544.5141,206.4797 545.4984,205.9313 Q546.4828,205.3688 547.5938,205.3688 Q548.2547,205.3688 548.8313,205.5234 Q549.4219,205.6641 549.9141,205.9875 Z " fill="#000000"/><text fill="#000000" font-family="sans-serif" font-size="12.6" lengthAdjust="spacing" textLength="69.3" x="565.875" y="214.9172">HtmlDirector</text><line style="stroke:#181818;stroke-width:0.45;" x1="363.15" x2="808.65" y1="224.1" y2="224.1"/><ellipse cx="372.15" cy="237.4295" fill="none" rx="2.7" ry="2.7" style="stroke:#038048;stroke-width:0.9;"/><text fill="#000000" font-family="sans-serif" font-size="12.6" lengthAdjust="spacing" textLength="140.4" x="380.25" y="241.2967">html_builder: HtmlBuilder</text><line style="stroke:#181818;stroke-width:0.45;" x1="363.15" x2="808.65" y1="248.059" y2="248.059"/><ellipse cx="372.15" cy="261.3885" fill="#84BE84" rx="2.7" ry="2.7" style="stroke:#038048;stroke-width:0.9;"/><text fill="#000000" font-family="sans-serif" font-size="12.6" lengthAdjust="spacing" textLength="423.9" x="380.25" y="265.2557">build_tree(sections_num: int, divs_num: int, div_style: Style, headers: bool)</text><ellipse cx="372.15" cy="278.1475" fill="#84BE84" rx="2.7" ry="2.7" style="stroke:#038048;stroke-width:0.9;"/><text fill="#000000" font-family="sans-serif" font-size="12.6" lengthAdjust="spacing" textLength="82.8" x="380.25" y="282.0146">get_html() : str</text></g><!--class HtmlTag--><g id="elem_HtmlTag"><rect codeLine="59" fill="#F1F1F1" height="143.7539" id="HtmlTag" rx="2.25" ry="2.25" style="stroke:#181818;stroke-width:0.45;" width="163.8" x="630.9" y="582.3"/><ellipse cx="685.125" cy="596.7" fill="#A9DCDF" rx="9.9" ry="9.9" style="stroke:#181818;stroke-width:0.9;"/><path d="M687.0938,598.2891 L683.3672,598.2891 L682.9875,599.2172 L683.3672,599.2172 Q683.9156,599.2172 684.1547,599.4281 Q684.3938,599.6391 684.3938,599.9906 Q684.3938,600.3281 684.1547,600.5391 Q683.9156,600.75 683.3672,600.75 L681.3,600.75 Q680.7516,600.75 680.5266,600.5391 Q680.2875,600.3281 680.2875,599.9766 Q680.2875,599.6391 680.5406,599.4281 Q680.7797,599.2031 681.3422,599.2172 L683.7469,593.2266 L682.7484,593.2266 Q682.2,593.2266 681.9609,593.0156 Q681.7219,592.8047 681.7219,592.4531 Q681.7219,592.1156 681.9609,591.9047 Q682.2,591.6938 682.7484,591.6938 L686.0531,591.6938 L689.1047,599.2172 Q689.6391,599.2172 689.8078,599.3438 Q690.1594,599.5828 690.1594,599.9906 Q690.1594,600.3281 689.9203,600.5391 Q689.6953,600.75 689.1469,600.75 L687.0797,600.75 Q686.5313,600.75 686.2922,600.5391 Q686.0531,600.3281 686.0531,599.9766 Q686.0531,599.6391 686.2922,599.4281 Q686.5313,599.2172 687.0797,599.2172 L687.4594,599.2172 L687.0938,598.2891 Z M686.4469,596.7563 L685.2234,593.7188 L683.9859,596.7563 L686.4469,596.7563 Z " fill="#000000"/><text fill="#000000" font-family="sans-serif" font-size="12.6" font-style="italic" lengthAdjust="spacing" textLength="47.7" x="703.575" y="601.9172">HtmlTag</text><line style="stroke:#181818;stroke-width:0.45;" x1="631.8" x2="793.8" y1="611.1" y2="611.1"/><ellipse cx="640.8" cy="624.4295" fill="none" rx="2.7" ry="2.7" style="stroke:#038048;stroke-width:0.9;"/><text fill="#000000" font-family="sans-serif" font-size="12.6" lengthAdjust="spacing" textLength="39.6" x="648.9" y="628.2967">tag: str</text><polygon fill="none" points="640.8,636.6885,644.4,640.2885,640.8,643.8885,637.2,640.2885" style="stroke:#B38D22;stroke-width:0.9;"/><text fill="#000000" font-family="sans-serif" font-size="12.6" lengthAdjust="spacing" textLength="85.5" x="648.9" y="645.0557">_tag_name: str</text><polygon fill="none" points="640.8,653.4475,644.4,657.0475,640.8,660.6475,637.2,657.0475" style="stroke:#B38D22;stroke-width:0.9;"/><text fill="#000000" font-family="sans-serif" font-size="12.6" lengthAdjust="spacing" textLength="87.3" x="648.9" y="661.8146">_tag_specs: str</text><polygon fill="none" points="640.8,670.2064,644.4,673.8064,640.8,677.4064,637.2,673.8064" style="stroke:#B38D22;stroke-width:0.9;"/><text fill="#000000" font-family="sans-serif" font-size="12.6" lengthAdjust="spacing" textLength="98.1" x="648.9" y="678.5736">_tag_iter: Iterator</text><line style="stroke:#181818;stroke-width:0.45;" x1="631.8" x2="793.8" y1="685.3359" y2="685.3359"/><polygon fill="#FFFF44" points="640.8,694.1654,644.4,697.7654,640.8,701.3654,637.2,697.7654" style="stroke:#B38D22;stroke-width:0.9;"/><text fill="#000000" font-family="sans-serif" font-size="12.6" font-style="italic" lengthAdjust="spacing" textLength="140.4" x="648.9" y="702.5326">_get_tag_gen() : Iterator</text><rect fill="#F24D5C" height="5.4" style="stroke:#C82930;stroke-width:0.9;" width="5.4" x="638.1" y="712.7244"/><text fill="#000000" font-family="sans-serif" font-size="12.6" lengthAdjust="spacing" textLength="89.1" x="648.9" y="719.2916">tag_getter(): str</text></g><!--class SingleTag--><g id="elem_SingleTag"><rect codeLine="69" fill="#F1F1F1" height="59.959" id="SingleTag" rx="2.25" ry="2.25" style="stroke:#181818;stroke-width:0.45;" width="162.9" x="631.35" y="780.3"/><ellipse cx="680.175" cy="794.7" fill="#ADD1B2" rx="9.9" ry="9.9" style="stroke:#181818;stroke-width:0.9;"/><path d="M682.6641,790.9875 Q682.8047,790.7906 682.9734,790.6922 Q683.1422,790.5938 683.3391,790.5938 Q683.6766,790.5938 683.8875,790.8328 Q684.0984,791.0578 684.0984,791.6063 L684.0984,792.9141 Q684.0984,793.4625 683.8875,793.7016 Q683.6766,793.9406 683.3391,793.9406 Q683.0297,793.9406 682.8469,793.7578 Q682.6641,793.5891 682.5656,793.125 Q682.5234,792.8016 682.3547,792.6328 Q682.0594,792.2953 681.5109,792.0984 Q680.9625,791.9016 680.4,791.9016 Q679.7109,791.9016 679.1344,792.1969 Q678.5719,792.4922 678.1219,793.1672 Q677.6859,793.8422 677.6859,794.7703 L677.6859,795.7547 Q677.6859,796.8656 678.4875,797.6109 Q679.2891,798.3422 680.7234,798.3422 Q681.5672,798.3422 682.1578,798.1172 Q682.5094,797.9766 682.8891,797.5828 Q683.1281,797.3438 683.2547,797.2734 Q683.3953,797.2031 683.5781,797.2031 Q683.8734,797.2031 684.0984,797.4422 Q684.3375,797.6672 684.3375,797.9766 Q684.3375,798.2859 684.0281,798.6516 Q683.5781,799.1719 682.8609,799.4672 Q681.8906,799.875 680.7234,799.875 Q679.3594,799.875 678.2766,799.3125 Q677.3906,798.8625 676.7719,797.9063 Q676.1531,796.9359 676.1531,795.7828 L676.1531,794.7422 Q676.1531,793.5469 676.7016,792.5203 Q677.2641,791.4797 678.2484,790.9313 Q679.2328,790.3688 680.3438,790.3688 Q681.0047,790.3688 681.5813,790.5234 Q682.1719,790.6641 682.6641,790.9875 Z " fill="#000000"/><text fill="#000000" font-family="sans-serif" font-size="12.6" lengthAdjust="spacing" textLength="57.6" x="698.625" y="799.9172">SingleTag</text><line style="stroke:#181818;stroke-width:0.45;" x1="632.25" x2="793.35" y1="809.1" y2="809.1"/><line style="stroke:#181818;stroke-width:0.45;" x1="632.25" x2="793.35" y1="816.3" y2="816.3"/><polygon fill="#FFFF44" points="641.25,825.1295,644.85,828.7295,641.25,832.3295,637.65,828.7295" style="stroke:#B38D22;stroke-width:0.9;"/><text fill="#000000" font-family="sans-serif" font-size="12.6" lengthAdjust="spacing" textLength="139.5" x="649.35" y="833.4967">_get_tag_gen() : Iterator</text></g><!--class DoubleTag--><g id="elem_DoubleTag"><rect codeLine="73" fill="#F1F1F1" height="59.959" id="DoubleTag" rx="2.25" ry="2.25" style="stroke:#181818;stroke-width:0.45;" width="162.9" x="848.25" y="780.3"/><ellipse cx="894.375" cy="794.7" fill="#ADD1B2" rx="9.9" ry="9.9" style="stroke:#181818;stroke-width:0.9;"/><path d="M896.8641,790.9875 Q897.0047,790.7906 897.1734,790.6922 Q897.3422,790.5938 897.5391,790.5938 Q897.8766,790.5938 898.0875,790.8328 Q898.2984,791.0578 898.2984,791.6063 L898.2984,792.9141 Q898.2984,793.4625 898.0875,793.7016 Q897.8766,793.9406 897.5391,793.9406 Q897.2297,793.9406 897.0469,793.7578 Q896.8641,793.5891 896.7656,793.125 Q896.7234,792.8016 896.5547,792.6328 Q896.2594,792.2953 895.7109,792.0984 Q895.1625,791.9016 894.6,791.9016 Q893.9109,791.9016 893.3344,792.1969 Q892.7719,792.4922 892.3219,793.1672 Q891.8859,793.8422 891.8859,794.7703 L891.8859,795.7547 Q891.8859,796.8656 892.6875,797.6109 Q893.4891,798.3422 894.9234,798.3422 Q895.7672,798.3422 896.3578,798.1172 Q896.7094,797.9766 897.0891,797.5828 Q897.3281,797.3438 897.4547,797.2734 Q897.5953,797.2031 897.7781,797.2031 Q898.0734,797.2031 898.2984,797.4422 Q898.5375,797.6672 898.5375,797.9766 Q898.5375,798.2859 898.2281,798.6516 Q897.7781,799.1719 897.0609,799.4672 Q896.0906,799.875 894.9234,799.875 Q893.5594,799.875 892.4766,799.3125 Q891.5906,798.8625 890.9719,797.9063 Q890.3531,796.9359 890.3531,795.7828 L890.3531,794.7422 Q890.3531,793.5469 890.9016,792.5203 Q891.4641,791.4797 892.4484,790.9313 Q893.4328,790.3688 894.5438,790.3688 Q895.2047,790.3688 895.7813,790.5234 Q896.3719,790.6641 896.8641,790.9875 Z " fill="#000000"/><text fill="#000000" font-family="sans-serif" font-size="12.6" lengthAdjust="spacing" textLength="63" x="912.825" y="799.9172">DoubleTag</text><line style="stroke:#181818;stroke-width:0.45;" x1="849.15" x2="1010.25" y1="809.1" y2="809.1"/><line style="stroke:#181818;stroke-width:0.45;" x1="849.15" x2="1010.25" y1="816.3" y2="816.3"/><polygon fill="#FFFF44" points="858.15,825.1295,861.75,828.7295,858.15,832.3295,854.55,828.7295" style="stroke:#B38D22;stroke-width:0.9;"/><text fill="#000000" font-family="sans-serif" font-size="12.6" lengthAdjust="spacing" textLength="139.5" x="866.25" y="833.4967">_get_tag_gen() : Iterator</text></g><!--class UniqueTag--><g id="elem_UniqueTag"><rect codeLine="77" fill="#F1F1F1" height="76.718" id="UniqueTag" rx="2.25" ry="2.25" style="stroke:#181818;stroke-width:0.45;" width="254.7" x="814.05" y="894.6"/><ellipse cx="906.525" cy="909" fill="#ADD1B2" rx="9.9" ry="9.9" style="stroke:#181818;stroke-width:0.9;"/><path d="M909.0141,905.2875 Q909.1547,905.0906 909.3234,904.9922 Q909.4922,904.8938 909.6891,904.8938 Q910.0266,904.8938 910.2375,905.1328 Q910.4484,905.3578 910.4484,905.9063 L910.4484,907.2141 Q910.4484,907.7625 910.2375,908.0016 Q910.0266,908.2406 909.6891,908.2406 Q909.3797,908.2406 909.1969,908.0578 Q909.0141,907.8891 908.9156,907.425 Q908.8734,907.1016 908.7047,906.9328 Q908.4094,906.5953 907.8609,906.3984 Q907.3125,906.2016 906.75,906.2016 Q906.0609,906.2016 905.4844,906.4969 Q904.9219,906.7922 904.4719,907.4672 Q904.0359,908.1422 904.0359,909.0703 L904.0359,910.0547 Q904.0359,911.1656 904.8375,911.9109 Q905.6391,912.6422 907.0734,912.6422 Q907.9172,912.6422 908.5078,912.4172 Q908.8594,912.2766 909.2391,911.8828 Q909.4781,911.6438 909.6047,911.5734 Q909.7453,911.5031 909.9281,911.5031 Q910.2234,911.5031 910.4484,911.7422 Q910.6875,911.9672 910.6875,912.2766 Q910.6875,912.5859 910.3781,912.9516 Q909.9281,913.4719 909.2109,913.7672 Q908.2406,914.175 907.0734,914.175 Q905.7094,914.175 904.6266,913.6125 Q903.7406,913.1625 903.1219,912.2063 Q902.5031,911.2359 902.5031,910.0828 L902.5031,909.0422 Q902.5031,907.8469 903.0516,906.8203 Q903.6141,905.7797 904.5984,905.2313 Q905.5828,904.6688 906.6938,904.6688 Q907.3547,904.6688 907.9313,904.8234 Q908.5219,904.9641 909.0141,905.2875 Z " fill="#000000"/><text fill="#000000" font-family="sans-serif" font-size="12.6" lengthAdjust="spacing" textLength="62.1" x="924.975" y="914.2172">UniqueTag</text><line style="stroke:#181818;stroke-width:0.45;" x1="814.95" x2="1067.85" y1="923.4" y2="923.4"/><rect fill="none" height="5.4" style="stroke:#C82930;stroke-width:0.9;" width="5.4" x="821.25" y="934.0295"/><text fill="#000000" font-family="sans-serif" font-size="12.6" lengthAdjust="spacing" textLength="99" x="832.05" y="940.5967">__instances : dict</text><line style="stroke:#181818;stroke-width:0.45;" x1="814.95" x2="1067.85" y1="947.359" y2="947.359"/><rect fill="#F24D5C" height="5.4" style="stroke:#C82930;stroke-width:0.9;" width="5.4" x="821.25" y="957.9885"/><text fill="#000000" font-family="sans-serif" font-size="12.6" lengthAdjust="spacing" textLength="231.3" x="832.05" y="964.5557">__new__(tag_name: str, *args, **kwargs)</text></g><!--class TagContent--><g id="elem_TagContent"><rect codeLine="82" fill="#F1F1F1" height="59.959" id="TagContent" rx="2.25" ry="2.25" style="stroke:#181818;stroke-width:0.45;" width="162.9" x="619.65" y="902.7"/><ellipse cx="663.525" cy="917.1" fill="#ADD1B2" rx="9.9" ry="9.9" style="stroke:#181818;stroke-width:0.9;"/><path d="M666.0141,913.3875 Q666.1547,913.1906 666.3234,913.0922 Q666.4922,912.9938 666.6891,912.9938 Q667.0266,912.9938 667.2375,913.2328 Q667.4484,913.4578 667.4484,914.0063 L667.4484,915.3141 Q667.4484,915.8625 667.2375,916.1016 Q667.0266,916.3406 666.6891,916.3406 Q666.3797,916.3406 666.1969,916.1578 Q666.0141,915.9891 665.9156,915.525 Q665.8734,915.2016 665.7047,915.0328 Q665.4094,914.6953 664.8609,914.4984 Q664.3125,914.3016 663.75,914.3016 Q663.0609,914.3016 662.4844,914.5969 Q661.9219,914.8922 661.4719,915.5672 Q661.0359,916.2422 661.0359,917.1703 L661.0359,918.1547 Q661.0359,919.2656 661.8375,920.0109 Q662.6391,920.7422 664.0734,920.7422 Q664.9172,920.7422 665.5078,920.5172 Q665.8594,920.3766 666.2391,919.9828 Q666.4781,919.7438 666.6047,919.6734 Q666.7453,919.6031 666.9281,919.6031 Q667.2234,919.6031 667.4484,919.8422 Q667.6875,920.0672 667.6875,920.3766 Q667.6875,920.6859 667.3781,921.0516 Q666.9281,921.5719 666.2109,921.8672 Q665.2406,922.275 664.0734,922.275 Q662.7094,922.275 661.6266,921.7125 Q660.7406,921.2625 660.1219,920.3063 Q659.5031,919.3359 659.5031,918.1828 L659.5031,917.1422 Q659.5031,915.9469 660.0516,914.9203 Q660.6141,913.8797 661.5984,913.3313 Q662.5828,912.7688 663.6938,912.7688 Q664.3547,912.7688 664.9313,912.9234 Q665.5219,913.0641 666.0141,913.3875 Z " fill="#000000"/><text fill="#000000" font-family="sans-serif" font-size="12.6" lengthAdjust="spacing" textLength="67.5" x="681.975" y="922.3172">TagContent</text><line style="stroke:#181818;stroke-width:0.45;" x1="620.55" x2="781.65" y1="931.5" y2="931.5"/><line style="stroke:#181818;stroke-width:0.45;" x1="620.55" x2="781.65" y1="938.7" y2="938.7"/><polygon fill="#FFFF44" points="629.55,947.5295,633.15,951.1295,629.55,954.7295,625.95,951.1295" style="stroke:#B38D22;stroke-width:0.9;"/><text fill="#000000" font-family="sans-serif" font-size="12.6" lengthAdjust="spacing" textLength="139.5" x="637.65" y="955.8967">_get_tag_gen() : Iterator</text></g><!--reverse link QObject to HtmlWidget--><g id="link_QObject_HtmlWidget"><path codeLine="86" d="M203.5723,105.9436 C215.0023,127.2106 223.254,142.551 237.915,169.812 " fill="none" id="QObject-backto-HtmlWidget" style="stroke:#181818;stroke-width:0.9;"/><polygon fill="none" points="195.903,91.674,198.8157,108.5001,208.3288,103.3872,195.903,91.674" style="stroke:#181818;stroke-width:0.9;"/></g><!--reverse link ABC to HtmlWidget--><g id="link_ABC_HtmlWidget"><path codeLine="87" d="M276.3,107.874 C276.3,129.141 276.3,142.551 276.3,169.812 " fill="none" id="ABC-backto-HtmlWidget" style="stroke:#181818;stroke-width:0.9;"/><polygon fill="none" points="276.3,91.674,270.9,107.874,281.7,107.874,276.3,91.674" style="stroke:#181818;stroke-width:0.9;"/></g><!--link HtmlWidget to Style--><g id="link_HtmlWidget_Style"><path codeLine="88" d="M276.3,314.163 C276.3,346.41 276.3,377.802 276.3,404.532 " fill="none" id="HtmlWidget-to-Style" style="stroke:#181818;stroke-width:0.9;"/><polygon fill="#181818" points="276.3,409.932,279.9,401.832,276.3,405.432,272.7,401.832,276.3,409.932" style="stroke:#181818;stroke-width:0.9;"/></g><!--reverse link HtmlAdapter to HtmlDirector--><g id="link_HtmlAdapter_HtmlDirector"><path codeLine="89" d="M585.9,127.125 C585.9,152.244 585.9,170.982 585.9,195.021 " fill="none" id="HtmlAdapter-backto-HtmlDirector" style="stroke:#181818;stroke-width:0.9;"/><polygon fill="#181818" points="585.9,116.325,582.3,121.725,585.9,127.125,589.5,121.725,585.9,116.325" style="stroke:#181818;stroke-width:0.9;"/></g><!--reverse link HtmlAdapter to HtmlWidget--><g id="link_HtmlAdapter_HtmlWidget"><path codeLine="90" d="M433.1165,120.7725 C400.1675,136.0275 375.975,149.598 346.5,170.1 C340.947,173.961 335.457,178.299 330.138,182.871 " fill="none" id="HtmlAdapter-backto-HtmlWidget" style="stroke:#181818;stroke-width:0.9;"/><polygon fill="none" points="442.917,116.235,436.5042,115.2369,433.1165,120.7725,439.5292,121.7706,442.917,116.235" style="stroke:#181818;stroke-width:0.9;"/></g><!--reverse link Strategy to Node--><g id="link_Strategy_Node"><path codeLine="91" d="M385.005,691.772 C329.43,719.24 261.45,752.832 205.956,780.264 " fill="none" id="Strategy-backto-Node" style="stroke:#181818;stroke-width:0.9;"/><polygon fill="none" points="399.528,684.594,382.6124,686.931,387.3977,696.613,399.528,684.594" style="stroke:#181818;stroke-width:0.9;"/></g><!--reverse link Strategy to Leaf--><g id="link_Strategy_Leaf"><path codeLine="92" d="M459,700.794 C459,728.262 459,752.832 459,780.264 " fill="none" id="Strategy-backto-Leaf" style="stroke:#181818;stroke-width:0.9;"/><polygon fill="none" points="459,684.594,453.6,700.794,464.4,700.794,459,684.594" style="stroke:#181818;stroke-width:0.9;"/></g><!--reverse link HtmlBuilder to Strategy--><g id="link_HtmlBuilder_Strategy"><path codeLine="93" d="M530.9542,537.5557 C510.1282,571.0897 492.84,598.923 477.324,623.907 " fill="none" id="HtmlBuilder-backto-Strategy" style="stroke:#181818;stroke-width:0.9;"/><polygon fill="none" points="536.652,528.381,530.7449,531.0691,530.9542,537.5557,536.8613,534.8676,536.652,528.381" style="stroke:#181818;stroke-width:0.9;"/></g><!--link HtmlBuilder to HtmlTag--><g id="link_HtmlBuilder_HtmlTag"><path codeLine="94" d="M635.148,528.381 C646.155,546.102 654.9154,560.2081 665.7064,577.5781 " fill="none" id="HtmlBuilder-to-HtmlTag" style="stroke:#181818;stroke-width:0.9;"/><polygon fill="#181818" points="668.556,582.165,667.3396,573.3849,666.1813,578.3426,661.2237,577.1844,668.556,582.165" style="stroke:#181818;stroke-width:0.9;"/></g><!--reverse link HtmlDirector to HtmlBuilder--><g id="link_HtmlDirector_HtmlBuilder"><path codeLine="95" d="M585.9,299.907 C585.9,323.208 585.9,341.343 585.9,368.073 " fill="none" id="HtmlDirector-backto-HtmlBuilder" style="stroke:#181818;stroke-width:0.9;"/><polygon fill="#181818" points="585.9,289.107,582.3,294.507,585.9,299.907,589.5,294.507,585.9,289.107" style="stroke:#181818;stroke-width:0.9;"/></g><!--reverse link HtmlTag to SingleTag--><g id="link_HtmlTag_SingleTag"><path codeLine="96" d="M712.8,742.698 C712.8,761.661 712.8,764.892 712.8,780.192 " fill="none" id="HtmlTag-backto-SingleTag" style="stroke:#181818;stroke-width:0.9;"/><polygon fill="none" points="712.8,726.498,707.4,742.698,718.2,742.698,712.8,726.498" style="stroke:#181818;stroke-width:0.9;"/></g><!--reverse link HtmlTag to DoubleTag--><g id="link_HtmlTag_DoubleTag"><path codeLine="97" d="M807.9988,722.9477 C839.9128,745.6547 861.876,761.283 888.3,780.093 " fill="none" id="HtmlTag-backto-DoubleTag" style="stroke:#181818;stroke-width:0.9;"/><polygon fill="none" points="794.799,713.556,804.8682,727.3477,811.1294,718.5478,794.799,713.556" style="stroke:#181818;stroke-width:0.9;"/></g><!--reverse link DoubleTag to UniqueTag--><g id="link_DoubleTag_UniqueTag"><path codeLine="98" d="M934.1225,856.9767 C935.6885,873.1587 936.09,877.248 937.773,894.528 " fill="none" id="DoubleTag-backto-UniqueTag" style="stroke:#181818;stroke-width:0.9;"/><polygon fill="none" points="932.562,840.852,928.7476,857.4968,939.4973,856.4565,932.562,840.852" style="stroke:#181818;stroke-width:0.9;"/></g><!--reverse link SingleTag to TagContent--><g id="link_SingleTag_TagContent"><path codeLine="99" d="M708.3775,856.9767 C706.5685,875.6697 705.789,883.62 703.971,902.331 " fill="none" id="SingleTag-backto-TagContent" style="stroke:#181818;stroke-width:0.9;"/><polygon fill="none" points="709.938,840.852,703.0027,856.4565,713.7524,857.4968,709.938,840.852" style="stroke:#181818;stroke-width:0.9;"/></g><!--SRC=[fLJ9Rjim4BthAmZd8iUIFy1e2pZ9eGMA5aLQz10K12LEPIOogPAK0oFDlvUBI96k4NIvnE6ycQTPtWnfb9QarQZjYLBeqyVc7iphgK1elLuNpqL1Se_jrVKBw5kzxxyose6dU0hmipAiJ71LBj46CQupaBB3UQ0Hae84wi16Y3v3Tq0Cgiw3hUY5T90nP0ZfMSVtm7L4JHq-_LjzxC5blk9a3o5srGXwF76rbMuf6JH87q2PD3KAkN7GpVHoqIFhAHv81wLexZT9avOMDhzuPqn9igjM0j60bSsdTAKug48n-UaTEkGxKA6ODdgD5gtWcZ0ESc6fNN5dPdPh7Xgwuyd42AKb5zImzKpfkoq_VglGWVGZ-0e-aywoHd1kpGSJvNloxnplWNp_NmwBNjdUXn5f2HED6uialDtXGSlPPZzakaxQXmsYy6E4aC7qGTTpDJLiW_HnWBlGFvEM6g1LiVsBPJ9AEmkhkOmekjiAfc9SeW8F4WvCZ5xTIIL1CHBKs1i9v-K6sVbwhQfmu-D-8_6gj2qfmt9YFkxT4bR8hcJ-z6ASP5IXQVcyxixh-FnvC2NwOP0koFq2cmTEDyvRvlv44zEsb7VcB_7RDGls0jiCh5C7t2MHkDNUhesbN7hAPEqPxtemYRcslS0J8sx4sFnTn1VEZ9n2H8qnuqPdl0Lbt2bhjRToUCIupDfHeKiYEsL-BXyUxN_9p0tVjHVM7oGIZlkhdtMT7A72dlHJMtB8w_hDT3lIctSv-ST3bu8Y9uiNndt5deSJazts8brNIn1SCi0c4nOb4tp89oXySlBySS2vEKwncEVfW3YiOfQ60-P-5xy0]--></g></svg>